<svg xmlns="http://www.w3.org/2000/svg" viewBox="0 0 2116 1819.19"><defs><style>.cls-1{opacity:0.5;}.cls-2,.cls-3{fill:#fff;}.cls-3{opacity:0.48;}</style></defs><title>Ativo 1cosmo</title><g id="Camada_2" data-name="Camada 2"><g id="Fundo"><g class="cls-1"><path class="cls-2" d="M1881.73,1395.94a3.94,3.94,0,1,1-3.94-3.94A3.93,3.93,0,0,1,1881.73,1395.94Z"/><circle class="cls-2" cx="1435.58" cy="1420.29" r="3.94"/><path class="cls-2" d="M1346.15,1499.1a1.23,1.23,0,1,1-1.22-1.22A1.22,1.22,0,0,1,1346.15,1499.1Z"/><path class="cls-2" d="M618.12,1081.7a1.22,1.22,0,0,1-2.44,0,1.22,1.22,0,0,1,2.44,0Z"/><path class="cls-2" d="M1607.65,968.73a1.22,1.22,0,1,1-1.22-1.22A1.22,1.22,0,0,1,1607.65,968.73Z"/><circle class="cls-2" cx="656.79" cy="1586.45" r="3.94"/><circle class="cls-2" cx="533.54" cy="1728.36" r="1.71"/><circle class="cls-2" cx="557.88" cy="1562.98" r="1.71"/><circle class="cls-2" cx="1411.46" cy="1817.48" r="1.71"/><circle class="cls-3" cx="1775.01" cy="1709.53" r="1.71"/><path class="cls-2" d="M1826.12,1336a1.71,1.71,0,1,1-1.71-1.71A1.7,1.7,0,0,1,1826.12,1336Z"/><path class="cls-2" d="M2000,1140.44a1.71,1.71,0,1,1-1.71-1.71A1.71,1.71,0,0,1,2000,1140.44Z"/><path class="cls-2" d="M1486.92,1167.14a3.94,3.94,0,1,1-3.94-3.94A3.94,3.94,0,0,1,1486.92,1167.14Z"/><circle class="cls-2" cx="1040.76" cy="1191.49" r="3.94"/><path class="cls-2" d="M951.33,1270.3a1.22,1.22,0,1,1-1.22-1.22A1.22,1.22,0,0,1,951.33,1270.3Z"/><path class="cls-2" d="M223.3,852.9a1.22,1.22,0,1,1-1.22-1.22A1.22,1.22,0,0,1,223.3,852.9Z"/><path class="cls-2" d="M1212.84,739.93a1.23,1.23,0,1,1-1.22-1.22A1.23,1.23,0,0,1,1212.84,739.93Z"/><circle class="cls-2" cx="261.97" cy="1357.65" r="3.94"/><circle class="cls-2" cx="138.72" cy="1499.56" r="1.71"/><circle class="cls-2" cx="163.07" cy="1334.18" r="1.71"/><circle class="cls-2" cx="1016.65" cy="1588.68" r="1.71"/><circle class="cls-3" cx="1380.19" cy="1480.74" r="1.71"/><path class="cls-2" d="M1431.31,1107.23a1.71,1.71,0,1,1-1.71-1.71A1.72,1.72,0,0,1,1431.31,1107.23Z"/><path class="cls-2" d="M1605.21,911.64a1.71,1.71,0,1,1-1.71-1.71A1.72,1.72,0,0,1,1605.21,911.64Z"/><path class="cls-2" d="M1997.71,546.7a3.94,3.94,0,1,1-3.94-3.94A3.93,3.93,0,0,1,1997.71,546.7Z"/><circle class="cls-2" cx="1551.55" cy="571.06" r="3.94"/><path class="cls-2" d="M1462.13,649.86a1.23,1.23,0,1,1-1.23-1.22A1.22,1.22,0,0,1,1462.13,649.86Z"/><path class="cls-2" d="M734.1,232.46a1.23,1.23,0,1,1-1.22-1.22A1.22,1.22,0,0,1,734.1,232.46Z"/><path class="cls-2" d="M1723.63,119.5a1.22,1.22,0,1,1-1.22-1.23A1.22,1.22,0,0,1,1723.63,119.5Z"/><circle class="cls-2" cx="772.77" cy="737.22" r="3.94"/><circle class="cls-2" cx="649.52" cy="879.12" r="1.71"/><circle class="cls-2" cx="673.86" cy="713.74" r="1.71"/><circle class="cls-2" cx="1527.44" cy="968.24" r="1.71"/><circle class="cls-3" cx="1890.99" cy="860.3" r="1.71"/><path class="cls-2" d="M1942.1,486.79a1.71,1.71,0,1,1-1.71-1.71A1.71,1.71,0,0,1,1942.1,486.79Z"/><path class="cls-2" d="M2116,291.2a1.71,1.71,0,1,1-1.71-1.71A1.71,1.71,0,0,1,2116,291.2Z"/><path class="cls-2" d="M1349.91,428.43a3.94,3.94,0,1,1-3.94-3.94A3.94,3.94,0,0,1,1349.91,428.43Z"/><circle class="cls-2" cx="903.75" cy="452.78" r="3.94"/><path class="cls-2" d="M814.32,531.59a1.22,1.22,0,1,1-2.44,0,1.22,1.22,0,0,1,2.44,0Z"/><path class="cls-2" d="M86.29,114.19A1.22,1.22,0,1,1,85.07,113,1.22,1.22,0,0,1,86.29,114.19Z"/><path class="cls-2" d="M1075.82,1.22a1.22,1.22,0,1,1-2.44,0,1.22,1.22,0,1,1,2.44,0Z"/><circle class="cls-2" cx="124.96" cy="618.94" r="3.94"/><circle class="cls-2" cx="1.71" cy="760.85" r="1.71"/><circle class="cls-2" cx="26.05" cy="595.47" r="1.71"/><circle class="cls-2" cx="879.63" cy="849.97" r="1.71"/><circle class="cls-3" cx="1243.18" cy="742.03" r="1.71"/><path class="cls-2" d="M1294.3,368.51a1.71,1.71,0,1,1-1.71-1.71A1.71,1.71,0,0,1,1294.3,368.51Z"/><path class="cls-2" d="M1468.19,172.93a1.71,1.71,0,1,1-1.71-1.71A1.71,1.71,0,0,1,1468.19,172.93Z"/></g></g></g></svg>