<svg xmlns="http://www.w3.org/2000/svg" viewBox="0 0 1232.86 687.58"><defs><style>.cls-1{opacity:0.15;}.cls-2{fill:#1f1b20;}</style></defs><title>Ativo 22</title><g id="Camada_2" data-name="Camada 2"><g id="Fundo"><g class="cls-1"><path class="cls-2" d="M683,343.24c-.06,3.19,1.58,2,1.9,2.52C684.35,340.41,682.53,343.38,683,343.24Z"/><polygon class="cls-2" points="674.85 291.45 675.69 292.25 672.69 284.98 674.85 291.45"/><path class="cls-2" d="M663.77,244.08c-.68,2.63.59,6.82,2.28,11.44l1.29,3.54.65,1.79c.19.61.36,1.21.54,1.82a44.46,44.46,0,0,1,1.49,7l-.32,1.53,3.13,3.32c-.68-2.56-1.48-5.29-2.31-8.06s-1.61-5.6-2.61-8.27A108.51,108.51,0,0,1,663.77,244.08Z"/><path class="cls-2" d="M660.73,217.37c-.44,1.93-3-5,1.93,5.86-.1-.6-.1-.79-.14-1.14C662.11,221.1,661.57,219.73,660.73,217.37Z"/><path class="cls-2" d="M662.52,222.09c2,4.83-.38-3.52,0,0Z"/><path class="cls-2" d="M652.54,200.16l3.74,5.86c0-1.58-2.39-7.24-1-5.36C651.85,194.43,651.87,196.06,652.54,200.16Z"/><path class="cls-2" d="M647.9,195.19l1,1.48.92,1.52C649.82,197.51,649.54,196.6,647.9,195.19Z"/><path class="cls-2" d="M653.73,204.66l-3.91-6.47c0,1.1-.8,1.58,1.71,3C650.52,201,651.86,202,653.73,204.66Z"/><path class="cls-2" d="M655.08,208.72c.26.93.54,1.93.79,2.8a11.45,11.45,0,0,1,.39,2.1c0,.46-.09.61-.43.27a24.43,24.43,0,0,1-1.79-2.63c.74,1.46,1.27,2.74,1.79,3.79s1,1.89,1.34,2.52c.75,1.25,1.22,1.69,1.36,1.37s0-1.38-.57-3.12A44,44,0,0,0,655.08,208.72Z"/><path class="cls-2" d="M660.16,242.63c.28,1.67.56,3.33.72,5l2.1,3.9a29,29,0,0,1-1.44-5.43C661.06,244.07,660.52,242.35,660.16,242.63Z"/><path class="cls-2" d="M633.4,161.85c-.75,0-.13,2.8-.52,3.64,1.14,1.28,2.16,2.63,3.2,4C635.21,167,632.81,162.62,633.4,161.85Z"/><path class="cls-2" d="M632.88,165.49l-5-5.81C631.46,165.42,632.54,166.2,632.88,165.49Z"/><polygon class="cls-2" points="644.51 195.51 646.4 198 648.16 200.57 651.7 205.72 647.66 199.49 646.65 197.94 645.57 196.43 643.4 193.42 644.51 195.51"/><path class="cls-2" d="M617.06,137.79c1.24.87,2.43,1.78,3.66,2.67l-3.09-2.5-3.22-2.39Z"/><path class="cls-2" d="M604.84,122.87c3,1.67-1.37-4.59,1.39-2.49a65.89,65.89,0,0,0-10.66-9A48.62,48.62,0,0,1,604.84,122.87Z"/><path class="cls-2" d="M590,107.38c1.68,1.35,3.57,2.61,5.62,4A39.63,39.63,0,0,0,590,107.38Z"/><path class="cls-2" d="M621,148.85c0-.68.1-2.15-2-5.86l.34,3.43Z"/><path class="cls-2" d="M619.33,146.53l0-.11-3.64-5.29C616.13,141.82,617.23,143.44,619.33,146.53Z"/><path class="cls-2" d="M621.44,149.47l-.43-.62C621,149.18,621.09,149.35,621.44,149.47Z"/><path class="cls-2" d="M636.66,177.46c-3-3.36-8.45-10.72-5.31-2.34C633.93,177.26,632.11,172.44,636.66,177.46Z"/><path class="cls-2" d="M621.81,153.67c.74,1.11,1.37,2.28,2,3.43l2,3.46c.3-.38.07-1.95,1.65-.37l-2.81-3.28C623.72,155.82,622.82,154.71,621.81,153.67Z"/><polygon class="cls-2" points="619.1 150.81 621.81 153.68 620.22 151.19 619.1 150.81"/><path class="cls-2" d="M598.08,118.62A37.27,37.27,0,0,1,594,115c-1.38-1.33-2.83-2.74-4.34-4.25,1.44,1.79,3,3.5,4.46,5.32s2.93,3.58,4.4,5.28C599.32,121.43,601.35,122.3,598.08,118.62Z"/><path class="cls-2" d="M608.65,132l-.56-.55C608.27,131.93,608.47,132.26,608.65,132Z"/><path class="cls-2" d="M559.08,81.82c.12.22.2.45.31.68a2.85,2.85,0,0,1,.31-.12Z"/><path class="cls-2" d="M598.76,122.09a19,19,0,0,0,5.35,5.24c-1.82-1.83-3.69-3.82-5.61-6C598.13,121.25,598,121.31,598.76,122.09Z"/><path class="cls-2" d="M581.13,99.49c.52.75,1.1,1.53,1.72,2.34s1.21,1.68,1.85,2.55a27.37,27.37,0,0,0-1.78-3C582.21,100.36,581.51,99.55,581.13,99.49Z"/><path class="cls-2" d="M607.74,130.26c.13.12.25.22.38.36C607.71,129.5,607.66,129.72,607.74,130.26Z"/><path class="cls-2" d="M607.74,130.26a33.83,33.83,0,0,0-3.63-2.93c1.4,1.56,2.74,3,4,4.14A6.66,6.66,0,0,1,607.74,130.26Z"/><path class="cls-2" d="M542.4,82.56c.71-.45,3,.4,5.78,2.12a31.47,31.47,0,0,1,4.31,3.2,32.35,32.35,0,0,1,3.9,4.34c6.43,4,6.23-3.08,3-9.72-.65.41-.95.74-7.74-3.35.79,1.21,4,4.21,5.94,6.79s3.1,4.31.16,2.7c-2.09-1.51-3.47-2.69-4.52-3.54A13.65,13.65,0,0,1,551.1,83a35,35,0,0,0-2.91-4c1.07,2.09-2,.63-5.23-.88s-6.92-2.87-6.85-1.08c2.66,1.39,5.16,3,7.72,4.58C543.68,82.13,540.7,80.7,542.4,82.56Z"/><path class="cls-2" d="M570.64,92.52l2.49,2.1c-1.26-1.37-2.22-2.68-3.31-4.07s-2.2-3-3.65-5.07c-4.62-3-5.85-3.26-6.47-3.1l6,5.33,3,2.66,1.49,1.34,1.43,1.4Z"/><path class="cls-2" d="M583.63,104.78A12.68,12.68,0,0,1,581,103.7c-1-.46-2-1-2.79-1.32-1.64-.7-2.63-.74-1.57,1.56.86.8,1.6,1.46,2.24,2s1.13,1,1.59,1.38a10.72,10.72,0,0,0,2.09,1.37,14.91,14.91,0,0,1,4.22,2.49c-10.89-10.79,3.74,2.53-3.22-6.18,2.3,2,4.24,3.9,6.07,5.71-1.76-2.15-3.42-4.27-4.94-6.33l.17.34,0,0h0c.31.63.36.88-.07.25a2,2,0,0,1-.24-.2,1.85,1.85,0,0,1-1,0c-2.83-3.48-.17-.83,1,0,.09,0,.24,0,.31,0l0,0c-1-.87-1.88-1.78-2.86-2.61l-3-2.5-5.91-5c1.1,1.21,2.4,2.51,4.09,4.12l2.87,2.67,1.7,1.56Z"/><path class="cls-2" d="M624,170.1c-.12-.47,0-.52.09-.62C623.42,168.77,623.1,168.54,624,170.1Z"/><path class="cls-2" d="M621.58,164.32a13.16,13.16,0,0,1,3.65,4.3c1.23,2.89-.71.43-1.1.86,1.56,1.55,5,5.76,2.18-.43l-.78-.78c-2.77-5.43-5.24-13.26-4.48-12.5A21.77,21.77,0,0,0,621.58,164.32Z"/><path class="cls-2" d="M603.64,133.66c-2.77-3.21-5.82-6.17-8.79-9.18l3.08,5.83.48-.82c1.12,1.4,1.9,2.38,2.48,3a4.5,4.5,0,0,0,1.33,1.11C602.85,133.93,603.1,133.52,603.64,133.66Z"/><polygon class="cls-2" points="558.51 80.19 560.97 79.92 559.15 79.19 557.27 78.53 553.54 77.22 558.51 80.19"/><path class="cls-2" d="M545.21,70l1.44-.89c-1.36-.65-2.78-1.22-4.17-1.83Z"/><path class="cls-2" d="M60.07,511.08l2.17,2.86A33.83,33.83,0,0,0,60.07,511.08Z"/><path class="cls-2" d="M47.86,488.3l-1-.22C47.8,489,48.31,489.26,47.86,488.3Z"/><path class="cls-2" d="M158.32,53.27C152.91,55,146.4,56.44,148,57.56l2.39.52A39.82,39.82,0,0,1,158.32,53.27Z"/><path class="cls-2" d="M12.18,280.13l.79-1.44c-.29-1.39-.57-2.69-.81-3.86C12.17,276.43,12.07,278.22,12.18,280.13Z"/><path class="cls-2" d="M18.57,285.17l-2.31,6.61A54.72,54.72,0,0,0,18.57,285.17Z"/><path class="cls-2" d="M156.86,611.88c1.46.32,2.91.64,4.41.86-1.38-.84-2.24-1.41-2.82-1.71s-.88-.33-1-.24C157.09,611,157.32,611.67,156.86,611.88Z"/><path class="cls-2" d="M388.19,5.79a97.81,97.81,0,0,0-11.65-2.54C382.14,5,386.49,7,388.19,5.79Z"/><path class="cls-2" d="M38.88,511.16c1.42,1.85,2.22,2.53,2.52,2.28C40,511.53,39,510.52,38.88,511.16Z"/><path class="cls-2" d="M362.82,2.11c.83.23,1.65.38,2.49.6,1.74,0,3.49,0,5.34,0a43.62,43.62,0,0,1,5.89.5,32.32,32.32,0,0,0-6.63-1.34A25.59,25.59,0,0,0,362.82,2.11Z"/><path class="cls-2" d="M608,527c.27-.26.54-.62.8-.85C608.66,525.94,608.38,526.37,608,527Z"/><path class="cls-2" d="M677.79,391.29c-.09,1.54-.41,4-.68,6.41A41.32,41.32,0,0,0,677.79,391.29Z"/><path class="cls-2" d="M488,34.49c3.26,1.44.61,0,0,0Z"/><path class="cls-2" d="M500.12,48.38c-.75-.17-1.37-.21-1.64.1A2.37,2.37,0,0,1,500.12,48.38Z"/><path class="cls-2" d="M327.8,12.31h-.3C328.54,12.63,328.36,12.57,327.8,12.31Z"/><path class="cls-2" d="M492.39,37.59c-1.09-.79-2.38-1.66-3.82-2.52C489.17,35.51,490.32,36.3,492.39,37.59Z"/><path class="cls-2" d="M492.12,36.53l2.69,1.57C495.34,38.05,495.07,37.7,492.12,36.53Z"/><path class="cls-2" d="M483.4,32.53c1.86.81,3.56,1.67,5.17,2.54-.59-.4-.81-.61-.62-.58Z"/><path class="cls-2" d="M382.44,671.59c.23,0,.49,0,.75.08C386.48,670.52,385,670.82,382.44,671.59Z"/><path class="cls-2" d="M100.41,124.1c.1-.12.12-.21.21-.33l-.39.32Z"/><path class="cls-2" d="M93.36,134a18.21,18.21,0,0,1,6.87-9.88c-2.14-.16-4.33-.35-6.45-.45Q93.51,128.88,93.36,134Z"/><path class="cls-2" d="M96.91,560.67l-4.33-7.38a115.41,115.41,0,0,1,9.1,7.34c.81.68,1.32.88,1.32.52a13,13,0,0,0-1.26-3.2c-1.2.69-3.16-.48-5.5-2.59a68.92,68.92,0,0,1-7.62-8.29c-2.57-3.15-5.14-6.31-7.38-8.53s-4-3.68-5.25-3.13l-2.29-5.19c.88,1.33,1.29,1.35,2.16,2.66C71.72,522.66,68,528.54,61,516.3a25.1,25.1,0,0,1-1.39-3,15.47,15.47,0,0,1-.72-2.19c-.24-1.08.06-1.27,1.16,0l-6.58-8.75c-.76-1.39-.78-2.06-.48-2s1,.82,1.69,2.2l-1.08-1.76-1-1.82-2-3.63-4-7.28.2,0a36.76,36.76,0,0,1-3.49-4c-1.27-1.58-2.52-3.22-3.32-4.3-1-4.18,1.4,1.7,1.57.43-1.64-2.63-3.39-5.22-5-7.91,0-2,.95-1.37,2.24.5a40.45,40.45,0,0,1,4.29,7.83c.71-5-.39-6.57-2.23-9.19a35.59,35.59,0,0,1-3-5.35,45.33,45.33,0,0,1-3-10.21c1.16,2.63,2.51,5.19,3.75,7.78a16.61,16.61,0,0,0-.09-4.67c-.23-1.57-.67-3.17-1-4.93A115,115,0,0,1,35,441.84c-.11,1.23.28,6.16.17,9.74s-.75,5.76-3,1.26A34.48,34.48,0,0,0,28,441.73c1.83-.62,0-5.5-1.94-11.77l2.59-.24A38.83,38.83,0,0,0,26.92,426a14,14,0,0,0-1.3-2.1A22.45,22.45,0,0,1,23,420.17c-1.53-7.76,0-9.74,1.38-11.88-.9-6.19-1.3-3.93-1.86-1.91s-1.27,3.81-2.83-3.52c-.22-2.63-.53-5-.93-7.37s-.67-4.62-1.13-6.94c-.91-4.65-2.31-9.52-3.44-15.77.32-7.44,1.66,1.16,2.19-1.54l-2.53-6.38c-.08-1.6.59-1.11.92-.87a7.69,7.69,0,0,0-.88-2.49,3.4,3.4,0,0,0-.94-.8c-.64-.49-1.27-1.36-1.73-5.72-.72-.57-.85-2-.7-4,.08-1,.23-2.11.41-3.33.09-.61.19-1.24.29-1.9s.28-1.33.42-2A72.42,72.42,0,0,0,13,335a32.18,32.18,0,0,0-.46-8.72c.93-2.6,1.47,1.37,2.52.62-.49-7.39-.63-10.59-.89-13.46s-.38-5.4-1-11.64l1.49-5c.47-1.68,1.13-3.33,1.69-5-3.24,7.2-3.78-2.72-4.08-11.65-1.39,2.52-2.61,4.7-3.27,6.2l.55-7c.07-1.17.23-2.32.38-3.48l.45-3.48c.79-1.55,1.33,0,1.87,2.46,0-1,0-1.89,0-2.61,2-4.64,2.89-1.77,3.5,2-.87,1.53-1.78,3-2.66,4.51.92,3.68,2.06,7.1,3.66,6.68a21.66,21.66,0,0,1,.1-4.53c.26,1,.53,1.58.86,1.22s0-1.92-.13-4.22l3.48-2.41-.93-1L22.87,266c.44-1.41,1-2.79,1.55-4.17l1.64-4.13c.17-3.23.22-6.41.32-9.67s.47-6.53.84-10.07c.19-1.77.41-3.6.68-5.5s.74-3.82,1.2-5.85,1-4.16,1.65-6.38A62.29,62.29,0,0,1,33,213.31c-.18,5.46,2.69,2.33,4.85,3.57a10.31,10.31,0,0,0-2.74,4.2,49.21,49.21,0,0,0-1.89,6c-.57,2.21-1.18,4.56-1.81,7a52.44,52.44,0,0,1-2.25,7.38c2-5.08,2.74-3.55,2.69-2.11l.92-4.59c.27-1.54.73-3,1.09-4.55l2.31-9.1c.86.58,1.57-.2,2.39-1.64s1.9-3.48,3.27-5.52c-2.59.86-1.77-2.57,0-7.17.43-1.15.91-2.38,1.43-3.62s1.14-2.45,1.71-3.66a69.09,69.09,0,0,0,2.74-6.59c1.4.21,1.79,2.47-2.71,10.54,3.68-3.87,4.11-7.3,4.52-10.8s.92-7,4.53-10.72c-1.1,2-1.89,3-1.74,4.06a45,45,0,0,1,5-9.53,17.78,17.78,0,0,1,2.64-3.23c.66-.6,1-.66.87.14l-1.2,1.91c2.13-3.1,4.74-7,7.42-11.29.65-1.07,1.39-2.11,2.12-3.17l2.17-3.18c1.44-2.13,2.85-4.27,4.18-6.34s2.71-4,3.88-5.84,2.26-3.52,3.13-5a29.69,29.69,0,0,0,1.94-3.91,4.26,4.26,0,0,0,.47-2.34c.43.17,1.86,4.12,1.86,5.28,2.78-9.21,5.8-18.64,9.51-27.85.22,1.89,3.19,2.36,5.13,3.67s2.9,3.43-.77,8.48a61.26,61.26,0,0,0,4.66-4.2c1.75-1.75,3.64-4.06,6-7a6.8,6.8,0,0,1-4.18.81c-1.28-.15-2.09-.85-1-2.11a55.93,55.93,0,0,0,7.53-3.81l2.9-1.86a57.43,57.43,0,0,1,5.55-3.14c-3.18,1.92-3.19-4.13,1.35-7.87-.24,1.12,3.31,3.12,2,4.86l4-6.42c1.34-2.15,2.81-4.16,4.23-6.26-2.34,2.87,1.9,3.36,5.19,2.39-.86.12,1.59-1.78,4.59-4s6.76-4.59,8.18-5.9l-5.57,2.68a36.53,36.53,0,0,0,7.43-6.14c.87-1,1.58-1.91,2.27-2.81s1.31-1.76,1.93-2.65a43.55,43.55,0,0,1,4.29-5.44A30.36,30.36,0,0,1,169.81,59c-1.26,1.8-1.24,7.31,6.13,3.73.52-1,1.34-2.56,2.47-4.57a57.83,57.83,0,0,1,4.42-6.88,72.4,72.4,0,0,1,6.53-7.61,42.3,42.3,0,0,1,4-3.64,48.84,48.84,0,0,1,4.56-3.12l3.12,0c3.23-2,6.45-4.08,9.8-5.86-2.68,2.79-7.67,8.13-13,13.37-2.69,2.56-5.28,5.49-7.79,8s-4.84,4.83-6.79,6.69c5.85-1.89,2.23.59,10.2-3.64,3.38-.35-3.52,3.9-5.83,5.17l9.47-4.41,2.37-1.1,2.41-1,4.83-2c-1-1,2.39-3.3,5.82-5.53s7.08-4.07,6.29-5C212,45.25,205.52,49.47,199,53.38c-1-1,1.17-4.09,5.42-7.68,1.06-.89,2.25-1.82,3.55-2.75a35.2,35.2,0,0,1,4.23-2.7,70.51,70.51,0,0,1,10-4.54c4-.41-1,5.53-.34,6.24a13.53,13.53,0,0,1,2.61-1.73c.63-.36,1.35-.74,2.1-1.13s1.56-.7,2.36-1.05c3.22-1.34,6.44-2.48,7.2-2.39L230.62,39c4.1-.85,7-2.78,10.22-4.6a25.56,25.56,0,0,1,5.25-2.3,24.35,24.35,0,0,1,6.71-1.08,15.51,15.51,0,0,1,3.11-.28c1.17,0,2.41,0,3.57.11,2.31.13,4.21.13,4.32-.71-6.15-1.74-9.73-10.65-6.47-13.77.64,0,5.41-.39,10.51-.64,1.28-.06,2.57-.14,3.84-.16l3.65.07a44.63,44.63,0,0,1,5.24.39c3.08.68,1.15,2.48-.83,4.24s-4,3.51-1.46,4.1c.07-.76,3-2.21,4.27-2.73,3.7,0-1.1,2.51,6.62.79.9-2.89,16-1.81,3.38-2.76a35.93,35.93,0,0,1,8.13-1.06c2.25,0,4.65-.15,9.2-.48-1.52-.77.37-2.42,3.69-4.05a44.74,44.74,0,0,1,5.74-2.32c1.05-.34,2.11-.69,3.16-.92s2.09-.4,3.08-.52c-.43.71,1.38,1.56,2.25,2,4,0,7.61,0,10.93.06s6.38.48,9.4.71,6,.44,9.18.74,6.49.7,10.23,1c.66.38,2.77.91,4.32,1.46s2.51,1.18.94,1.58a29.4,29.4,0,0,1,8.81-.37c8.52,3.46-10.21-.93-3.82,2.74.38-.76,3.38-.92,7.13-.92l2.92,0c1,0,2,0,3,.11,2,.14,3.94.26,5.6.3-.39-.69-1.52-1.23-3.1-1.66a26.71,26.71,0,0,0-5.79-.85c-4.39-.24-9.38-.13-12.69,0,.16-1.68,3.18-3,8.21-3.91q1.89-.33,4.14-.57a44.58,44.58,0,0,1,4.79-.3c3.37,0,7.13.14,11.14.46A25.24,25.24,0,0,1,409.3,14c1.08.41,1.38.77,1.34,1.06-.06.6-1.4.94-.28,1a79.69,79.69,0,0,0,13.31,2.42,64.64,64.64,0,0,0,8.2.47,40.27,40.27,0,0,1,7.45.61A27.53,27.53,0,0,1,444,20.91c1.74.65,3.71,1.49,6,2.58,6.76,4.56-1.08,4.15.07,6.18a64.59,64.59,0,0,1-11.8-4.34,72.38,72.38,0,0,0-9.47-3.64l8,3.31c-3.35-.2-10-1.54-13.46-3.16a46.92,46.92,0,0,0,8.65,3.4c2.06.66,4.36,1.35,6.83,2.11l7.72,2.7c2.68.94,5.48,1.84,8.23,2.89l8.11,3.35L466.71,38c1.28.55,2.53,1.1,3.7,1.73,2.37,1.22,4.57,2.4,6.54,3.53,3.22.67,8.62,2.29,6.59.42l-5.37-2.09c-4.13-3.77,10.92,2.3,4.59-1.45l2.92.79c1,.29,2,.62,3,.94,2,.65,4.09,1.35,6.24,2.16s4.35,1.73,6.6,2.83A69.45,69.45,0,0,1,508.19,51l.56,3.16c.16-.73-5.5-4.86-8.54-5.73,2.25.65,5.5,3.49,8.9,6.09A43.45,43.45,0,0,0,514.24,58,9.41,9.41,0,0,0,519,59.58c-1.86-1.84-3.69-3.78-5.66-5.51.92.37,1.91.69,2.88,1.1l3,1.22c2.05.83,4.19,1.7,6.34,2.67A55.51,55.51,0,0,1,532,62.31a51.53,51.53,0,0,1,6,4.28c-2.28-4.58-2-1.1-6.16-7.47,1.58,3.11-3.72-.35-8.65-3.52a52.84,52.84,0,0,0-6.2-3.68c-1.4-.53-1.73-.22-.12,1.82a27.21,27.21,0,0,0-7.59-7c-1.4-1-2.88-2-4.43-3.16l-2.42-1.92c-.84-.68-1.71-1.44-2.6-2.29-.12.85,2.26,2.9-5-1.25a10.14,10.14,0,0,1-1.94-.2l-.48-.31.37.3c-.38-.06-.42,0,.14.11a13.12,13.12,0,0,1,3.2,3,18.1,18.1,0,0,1-4.49-1.09c-.9-.3-1.85-.66-2.82-1s-2-.79-3-1.15c-4.1-1.48-8.18-3.08-10.39-3.55-4.29-2.36,2.24,0,.15-1.9l-3.3-.7L468.88,31c.1-1.89-11-7.57.15-4.28l-9.71-3.92a40.5,40.5,0,0,0-4.47-2.27c-1.6-.71-3.27-1.41-4.93-2a47.65,47.65,0,0,0-9.23-2.7c-4.66-1.73-12.56-1.5-8-1.68-2.69-.55-5.35-1.17-8-1.67l-8.11-1.3-.05-.48c-7.83-2.1-16.21-2.62-24.71-3.8a180.67,180.67,0,0,1-26.42-4.18c-2.74,0-5.51,0-8.73,0s-6.9,0-11.45-.41L343.38.67c-3.51.09-8.77-.09-13.55-.23s-9.07-.19-10.52.81C317.37.35,314.25,0,310.47,0c-1.88,0-3.93.08-6.08.22s-4.38.53-6.65.86l-6.83,1.08c-2.27.38-4.52.7-6.65,1.2-4.27.9-8.18,1.66-11.27,2l-.07,2.07L269.8,8l-3.08.76c-2.06.52-4.13,1.09-6.25,1.7s-4.3,1.26-6.57,1.95-4.58,1.65-7.05,2.55l1.1,1.56c-4.12,2-9.81,3.06-16,4.79-3.13.81-6.43,1.63-9.8,2.55s-6.68,2.24-10,3.58c.65-1,4.1-2.16,6.63-2.71a54.65,54.65,0,0,0-12.66,3.6,127.65,127.65,0,0,0-11.79,6.25c-3.87,2.13-7.48,4.65-11.16,6.7a74.25,74.25,0,0,1-11,5.13A26.53,26.53,0,0,1,164,51.07a4.62,4.62,0,0,0,.78-.56c-.36.18-.87.47-1.39.77-.81.3-1.66.57-2.5.9s-1.69.7-2.57,1.09c1.6-.5,3.07-1.05,4.34-1.56a53.62,53.62,0,0,0-4.49,3c-1.67,1.2-3.46,2.55-5.19,3.93l-2.64-.6c-.29.22-.54.37-.84.6-4.06,1.77-2.43,2.65.32,2.61a30,30,0,0,0-4.14,4.25c-2.32-.26-4.53,1.64-6.88,3.59a28.83,28.83,0,0,1-3.66,2.74,8.48,8.48,0,0,1-4,1.47c-.68,1.56-4.86,5.22-8.81,9-3.8,4-7.35,8.06-7.1,10.09-.41-.24-1.52.45.24-1.12l-2.94,2.19-1.43,1.12c-.45.39-.89.79-1.33,1.2a30.69,30.69,0,0,0-4.56,5.18l-3.2-.34-2.71,4.87-2.51,5c-5.51,3.63-8,5-4.94-1-2.17,3.34-3.76,5.59-5,7.34s-2.07,3-2.9,4.2a74.19,74.19,0,0,0-6.33,10.4L76.78,130c-2.88,3.77-5.85,11-8.64,12.42-2.19,1.66-5.14,5.19-8.71,9.81-.88,1.16-1.84,2.36-2.75,3.68L53.91,160,48,169.18l-5.89,10.09c-1,1.72-2.07,3.4-3,5.17l-2.82,5.25-2.85,5.16L32,197.38c-.48.83-.88,1.7-1.32,2.53-1.74,3.35-3.48,6.56-5.21,9.53,3.24-1.46,1.4,1.17-.74,4.57s-4.54,7.58-3.05,8.74c-1.61,1.07-3.59,4.4-2.86-.06-.52,1.67-1.05,3.22-1.58,4.67s-1,2.86-1.45,4.16c-.95,2.6-1.9,4.91-2.74,7.12-.43,1.1-.82,2.17-1.18,3.24a23,23,0,0,0-.89,3.25,30.8,30.8,0,0,0-.6,7c-1.5,1.24-.74-3.32-1.75-2.13-.08,1.15-.3,4.54-1.33,5.77s-.33-2.22-.19-4.49a51.53,51.53,0,0,0-1.66,8.4,15.89,15.89,0,0,0,.43,5.12,6.85,6.85,0,0,0,3.63,4.35,33,33,0,0,0-2.88,8.26,21.25,21.25,0,0,0,.45,7.41C5.6,287.07,3.79,291,5,282.27c-.26,1.21-.8,3.66-1.45,6.67-.32,1.51-.67,3.16-1,4.86S2,297.28,1.73,299c-.92,7-1.48,13.39-.12,13.77-.77,1.48-.72,6.87-.52,8.19-.26,2.75-.46,4.88-.63,6.69S.29,331,.21,332.48c-.12,3-.2,5.95-.21,11.38l.49-3C2,343,2,345.26,2,348.06a88.8,88.8,0,0,0-.22,10.54l-.32-.24a64.86,64.86,0,0,0-.29,10.15,28.31,28.31,0,0,0,.52,4.18,25,25,0,0,1,.44,4.13c0,1,0,2.28,0,3.91s.07,3.62.07,6.12L4,385.56c2.17.67,2.11,5,1.89,10.7,0,5.62,0,12.56,1.8,18.06.08-1.43.22-2.86.33-4.29,1.15,3,.81,7.47.2,12.13s-1.52,9.48-.81,12.61c0,1.43-1.2-2-1.91-3.8,2.15,16.81,3,1.47,6.94,13.25-.34,1.29-1.37.84-2.05,1.06-.35.12-.6.41-.65,1.18a11.79,11.79,0,0,0,.75,4c.16,2.15,3.14,7.64,6.29,13.93,1.71,3.09,3.45,6.4,4.88,9.66.72,1.63,1.35,3.25,1.87,4.83a32.41,32.41,0,0,1,1.33,4.48c-.09-2.72-.15-5.38,2.94-.46A53.13,53.13,0,0,1,30.51,490c.44,1.33.85,2.72,1.32,4.1s1,2.75,1.54,4.13a66.84,66.84,0,0,0,3.47,7.8,23.05,23.05,0,0,0,2,3.22,15.86,15.86,0,0,0,2.43,2.42c.31,1.11.29,1.61.08,1.78,1,1.36,2.3,3.18,3.69,5.19s2.85,4.22,4.48,6.23c3.17,4.07,6.25,7.78,8.08,9a5.07,5.07,0,0,0-.08,1.84,10.28,10.28,0,0,0,.62,2.11,26.54,26.54,0,0,0,2.73,4.89c1.18,1.75,2.58,3.59,4.08,5.45l1.15,1.4c.4.46.82.9,1.23,1.35.83.9,1.67,1.79,2.5,2.68,1.66,1.76,3.3,3.48,4.77,5.1s2.77,3.14,3.9,4.42c2.2,2.59,3.23,4.59,2,5.57l3.46,3.86c1.17,1.28,2.26,2.62,3.5,3.82l7.28,7.4-.82,0q1.67,1.86,3.12,3.37c1,1,2,1.85,2.86,2.64a59,59,0,0,0,4.76,3.8,39.68,39.68,0,0,0,7.2,4.07c2,2.31,0,1.28-.44,1.35,6.91,6.77,10.72,10.55,14.85,13.28,2,1.41,4.06,2.65,6.49,4,1.23.67,2.51,1.43,4,2.13l5,2.34.22,2.58a27.57,27.57,0,0,1,5.33,3.75c1.2,1,2.62,2.06,4.16,3.23l5,3.77c1.78,1.32,3.65,2.71,5.61,4.08s4.11,2.6,6.24,3.86,4.33,2.48,6.53,3.62a33.72,33.72,0,0,0,3.35,1.55c1.13.48,2.26.92,3.39,1.33-.27.12-.8.28-2.28-.16,10,4,21,10.68,31.06,15.52,2.53,1.2,5,2.33,7.3,3.32,1.16.49,2.29.95,3.39,1.35s2.19.68,3.22,1c4.14,1.06,7.6,1.32,10,.23l3.47.7c1.16.21,2.34.36,3.5.55l7,1.06c-8.64-2.75-7.75-3.31-5.58-3.59s5.6-.29,2.23-1.87a40.91,40.91,0,0,1,10,3.86c1.17.64,1.88,1.13,1.75,1.41s-1.11.34-3.22-.2l-1.22-.72c-1,.69-.19,1.5,1.6,2.36a51.43,51.43,0,0,0,7.49,2.35c2.88.76,5.87,1.51,8.07,2.21,1.09.37,2,.67,2.61,1s.91.6.78.9q6.63,1.15,13.18,2.38c1.09.23,2.19.38,3.3.53l3.29.46,6.58.95,3.28.48c1.09.17,2.18.34,3.28.43l6.56.66,6.55.68c1.09.1,2.17.25,3.26.32l3.27.18,13,.72c4.33.1,8.65,0,12.94.07,2.15,0,4.3,0,6.44-.06l6.39-.36,6.36-.4,3.17-.21c1.06-.07,2.1-.23,3.15-.35-1.39-.82-2.77-1.58-4.15-2.49,1,0,1.94-.14,2.91-.26l2.9-.32,5.8-.66c3.13.29,4.42,1.75-3.92,2.69,2.28.54,5.75-.25,8.62-1.25.72-.25,1.41-.52,2-.78s1.17-.58,1.64-.83c.93-.52,1.52-.94,1.55-1.11,8.13-.85,6.73.27,3.87,1.5s-7.17,2.59-4.67,2.18l6.72-1.42-1.58-.07c2.63-1.07,4-1.94,5.95-2.75a29.69,29.69,0,0,1,3.6-1.19c1.48-.46,3.33-.94,5.79-1.47,6.32-.86,3.59,1,6.06.57,0,.21.89.11,3.78-.79,4.81-1.16,9.57-2.51,14.36-3.76l-6.34-.6a81.27,81.27,0,0,1,8-3c.84-.32,1.25-.62,1-.81a8.64,8.64,0,0,0-3-.52,13,13,0,0,0,2.36,0c.89-.09,1.89-.24,3-.44,2.18-.4,4.71-1,7.47-1.76,5.58-1.37,11.84-3.93,18-6.32,3.11-1.15,6.06-2.6,8.9-3.88l7.88-3.62c1.2-.51,2.29-1.09,3.3-1.59l2.78-1.36a28.18,28.18,0,0,1,3.68-1.53c1.84-1.42,3.72-2.74,5.67-4s3.84-2.64,5.87-3.9c4.05-2.55,8.5-4.91,13.2-7.93-2.6,1.09-5.34-.23,2.86-5.11,0,1.59,1,1.92,2.64,1.5a25.34,25.34,0,0,0,6.42-3.14c2.48-1.53,5.24-3.3,7.91-4.78a42.93,42.93,0,0,1,3.9-2,16.09,16.09,0,0,1,3.45-1.24c-3.53,1.15,1.79-3.23,6.62-7.4a38.13,38.13,0,0,0,5.56-5.55c1-1.31.66-1.8-2-.71,6.35-4.92,1.67,1.21,7.12-1.84.82-.88,1.67-1.76,2.54-2.64s1.78-1.72,2.64-2.65q2.63-2.71,5.48-5.42c1.89-1.81,3.9-3.57,5.87-5.43l5.94-5.74c2-1.95,4.1-3.86,6.09-5.91l5.94-6.31,3-3.24,1.47-1.64,1.39-1.72c1.84-2.31,3.66-4.66,5.43-7.06-.33-.71-3.63,1.74-1.32-2.89,3.57-2.5,6.83-5.3,10.25-8,1.23-2,1-3.49,1.38-5.14a7.23,7.23,0,0,1,1.2-2.72,17.7,17.7,0,0,1,3.37-3.73c-1.15.7-2.87,1.72-1.36-1,14.12-18.48,24.53-40.14,32.82-62.42s14.61-45.26,21.57-68.18c-2.48,6.11-1.85,1.87-1-3-.87,3.09-1.71-.33-2.76.14.9-3.18,1.72-6.38,2.58-9.59l1.28-4.82.64-2.42c.21-.81.36-1.62.54-2.43-1.18-1.93-.83-7.2-.47-12.28.07-1.27.21-2.53.2-3.72s0-2.32-.06-3.32c-.12-2-.4-3.49-1-4l.3,6.25c-1.41-4.21-3.08-1.35-5,2.27s-4.25,8-6.12,7.29a17.74,17.74,0,0,1,.13,7.78c-.53,2.85-1.55,5.9-2.49,9.13-.48,1.61-.94,3.26-1.36,5-.2.85-.4,1.71-.57,2.57s-.41,1.73-.57,2.61a33,33,0,0,0-.41,11c-1.33,3.05-.72-3-1.9-1.42,1.06,4,.26,8.46-2.31,16.43l-.18-1-.9,4.15c-.33,1.33-.71,2.59-1.06,3.83-.71,2.46-1.4,4.78-2.09,7l-1,3.26c-.33,1.07-.68,2.12-1.1,3.13l-2.4,6.08-2.51,6.17c-.41,1.07-.91,2.12-1.42,3.19l-1.54,3.31c-1,2.27-2.14,4.66-3.33,7.23l-.88,2c-.34.65-.68,1.31-1,2l-2.14,4.21,2.53-1a44.53,44.53,0,0,1-5.09,8.07c-.07,7.13,6.67-14.36,7.13-7.69-1.66,1.33-3.52,4.25-5.46,7.94-.93,1.87-2.09,3.82-3.19,5.9l-3.35,6.37c-.56,1.06-1.11,2.13-1.66,3.17s-1.2,2-1.79,3c-1.18,1.94-2.34,3.76-3.44,5.35-2.2,3.18-4.15,5.46-5.8,5.92-4.69,7.25,3.23-1-1.47,6.29l-2.23,1.29.09,2.69a25.2,25.2,0,0,1-2.36,2.92,16.75,16.75,0,0,1-2.14,1.8c-1.27.89-2.23,1.15-2.7,1A48.55,48.55,0,0,0,608,527c-2.7,2.59-5.58,6.85-8,10.7-1.18,1.95-2.44,3.67-3.41,5.09a21.58,21.58,0,0,1-2.25,2.87c1.88-2,3.82-4,5.67-6.08-1.66,2.43-3.49,4.84-5.33,7.32l-2.82,3.72-1.44,1.88c-.5.61-1,1.21-1.54,1.82l-6.29,7.31c-1.07,1.21-2.07,2.5-3.21,3.65L576,568.84l-6.64,7.08c-2.29,2.25-4.55,4.5-6.75,6.74-4.31,4.58-8.8,8.69-12.7,12.92l1.89-.45c-1.52,1.58-2.83,2.93-4,4s-2.28,1.94-3.24,2.7c-1.92,1.5-3.44,2.51-5,3.52L537.06,607c-.88.57-1.81,1.24-2.93,1.94-2.23,1.44-5,3.39-8.81,6.33l.45-.58c-2.57,3-6.72,6.12-11.21,8.9,3.52-3.5-8.75,3.2-4-1.22-.93.74-1.78,1.4-2.55,2l-2.14,1.54c-1.28.92-2.27,1.66-3.05,2.26a18.3,18.3,0,0,0-2.83,2.5c-.54.62-.87,1.19-1.66,2.17a33.38,33.38,0,0,1-4.43,4.56H490.6c-1.6,1.57-2.41,2.56-3.87,3.75a38.65,38.65,0,0,1-7.9,4.77c6.68-4.41-6.56.49.78-4.68a73,73,0,0,0-12.48,4.62c-3.53,1.59-6.57,3.1-9.29,4.53-1.36.71-2.65,1.38-3.9,2a21.1,21.1,0,0,1-3.68,1.45,16.79,16.79,0,0,1-7.36.62c-3.72,3.42.56,2.57,5.25,1.16,1.17-.35,2.36-.73,3.46-1.09s2.05-.79,2.82-1.07c1.52-.58,2.19-.79,1.06-.11,2.27-.17.76,1.25-2.1,3a52.32,52.32,0,0,1-10.28,4.21,16.33,16.33,0,0,1-4.74.7c-1.66,0-3.49-.18-5.58-.24a49.32,49.32,0,0,0-7.27.24c-1.41.15-2.93.38-4.58.71s-3.47.59-5.43,1.06c1.57-.34,1.6-.67,3.16-1a34.87,34.87,0,0,0-8.84,2.14,47.34,47.34,0,0,1-4.67,1.32,24,24,0,0,1-5.31.32c-3.64,3.18-9.47,1.55-10.16,4.89l14.53-3.34c-4.07,1.15-7.89,3-12.49,4.62a40.88,40.88,0,0,1-7.63,1.92,58.35,58.35,0,0,1-9.46.75c1-.77,5-2.13,7.8-3a19.56,19.56,0,0,0-5.94.6,16.05,16.05,0,0,1-6.06.46c.22-.83,1.46-1.29,3.3-1.79a67.81,67.81,0,0,1,7-1.24c2.71-.39,5.67-.77,8.48-1.3a39.67,39.67,0,0,0,7.53-2.43,13.7,13.7,0,0,0-4.38.52c-1.68.39-3.45,1-5,1.3-3.06.7-5.07,1-3.07-1-2.91,2.56-6.89,2.93-11.4,3.24-4.54.11-9.6.07-14.95,2.16l.61-1.95c-.86.19-2.15.67-3.65.92a26.7,26.7,0,0,1-4.77.57l5.63-2.61c-4.33,1.16-8.61.81-12.8.34l-3.13-.36c-1-.1-2.08-.29-3.12-.4a29.09,29.09,0,0,0-6.26-.08,53.39,53.39,0,0,1,8.15.57c1.31.26,1.49.54,1.35.94-.28.75-1.85,1.73,1.91,2.32a41.55,41.55,0,0,1-6.89.48,32.17,32.17,0,0,1-4.73-.33,21.07,21.07,0,0,1-5.92-1.87,38.14,38.14,0,0,0-6.31-2.43,64.34,64.34,0,0,0-12.84-1.64,35.27,35.27,0,0,1,6.68,1.14c2,.58,2.93,1.23.32,1.47-1.15-.18-2.39-.4-3.65-.63a38.05,38.05,0,0,1-3.73-.83,35.18,35.18,0,0,1-5.91-2c-16-1.63,2.19,2.25-4.77,2.54a10.42,10.42,0,0,0-6.82-1.29,41.13,41.13,0,0,1-8.36.52l.3-1.91c-2.24-.55-4-.92-5.42-1.15a20.16,20.16,0,0,0-3.24-.47,4.29,4.29,0,0,0-2.84.65c-1.19.73-2.16,1.47-10.15-1.14l7.51-1-4.3-.64c-1.44-.23-2.89-.39-4.3-.71.76-.55,1.51-1.06,2.27-1.65a60.37,60.37,0,0,1-10.72-1.85c-1.48-.41-2.93-.88-4.55-1.44s-3.38-1.38-5.51-2.24c1.61,2-2.23,2.94-10.07.35-1.24-.71-1.62-1.14-1.68-1.41s.19-.36.25-.48-.51-.62-6-2.62a17.64,17.64,0,0,1,4.62.11,10.83,10.83,0,0,1,2.62.89,13.64,13.64,0,0,1,3,1.82c.7-.43,2.84-.32,3.54-.74-5.28-3-13.94-5.51-17.85-7a25.12,25.12,0,0,1,4,2.07c-2.75-.62-5.53-1.19-8.29-1.86l-8.2-2.24c-2.12-1.76.05-1.42,2.17-1.08a43.52,43.52,0,0,0-4.62-1.38,29,29,0,0,1-5.67-2c1.85-.83,2.24-2.31,9-.13-5.11-1.54-10-3.54-15-5.43a29.52,29.52,0,0,0-3.17-3c-1.26-1.12-2.09-2.21-1.08-1.93-3.56-2.6-8.6-4.56-13.93-6.87-2.61-1.24-5.3-2.55-7.91-4a38.93,38.93,0,0,1-7.36-5,13.45,13.45,0,0,1-4-1.83c-2.19-1.67-4.26-3.36-6.32-5.06s-3.94-3.61-6-5.38-4.23-3.5-6.55-5.26a74.49,74.49,0,0,0-7.58-5.33l-1.86-3.47-.92-1.72-.86-1.79c-3.88-3.26-2.69-.9-2.13.93s.48,3.13-6.07-2.39c-4.7-3.86-5.11-5.06-4.61-5.75s1.76-.8.59-2.6a107.52,107.52,0,0,1-9.89-6.9l-1.41-1.17c-.44-.43-.89-.86-1.33-1.31-.89-.9-1.76-1.85-2.62-2.86a42.24,42.24,0,0,1-4.68-6.7C93,555.78,94.51,558.22,96.91,560.67ZM32.25,453.09c.59,1.09,1.56,2.69,2.33,4.27s1.49,3.08,1.28,4.12a5.63,5.63,0,0,1-2.72-3.3C32.72,456.83,32.63,455.17,32.25,453.09ZM20,262.44c.12,1.94-.77,4.65-2.22,7.63A30.32,30.32,0,0,1,20,262.44ZM451.32,21.23a2.79,2.79,0,0,0-.29,0C445.8,18.67,447.64,19.61,451.32,21.23Zm11,4.89c1.22.19,1.24-.09.87-.53-1,.16-3.47-.82-6.28-2C457.5,24.31,458.8,25.22,462.28,26.12ZM421.15,677.55l-2.38,0C423.74,675.87,422.44,676.68,421.15,677.55Z"/><path class="cls-2" d="M17.84,284.52a1.81,1.81,0,0,1-1.21.85C16.78,286.39,17.14,286.47,17.84,284.52Z"/><path class="cls-2" d="M156.05,611.7l.3.24a.84.84,0,0,0,.51-.06Z"/><path class="cls-2" d="M282.92,24.59a17.32,17.32,0,0,1-4.64-.18C278.24,24.89,279.37,25.1,282.92,24.59Z"/><path class="cls-2" d="M520.73,51.43c-2.23-1.3-4.59-2.38-6.9-3.53A22.39,22.39,0,0,1,519.49,52C519.58,51.5,518.68,50.15,520.73,51.43Z"/><path class="cls-2" d="M566,100.78c.95.58,1.69,1.57,2.63,2.14l.4-.86C565.58,98.88,562.75,97.18,566,100.78Z"/><path class="cls-2" d="M523.28,60.68c-.19.84.79,1.79,2.4,2.85.8.53,1.76,1.09,2.81,1.68l3.24,2c-.26-.18-.52-.34-.77-.54,1.29-.48.67-1.39-.91-2.51A55.22,55.22,0,0,0,523.28,60.68Z"/><path class="cls-2" d="M532.76,67.9c1.38.88,2.77,1.82,4,2.81C537.82,70.33,535.27,69.4,532.76,67.9Z"/><path class="cls-2" d="M476.76,30.89c2.15,1.43,2.3-1.24,3.35,0,1.73-.35-2.43-1.55-5.35-2-1.44-.27-2.62-.27-2.58,0s.35.34,1.08.68S475.11,30.29,476.76,30.89Z"/><polygon class="cls-2" points="523.94 67.46 523.46 64.77 520.11 64.53 523.94 67.46"/><path class="cls-2" d="M488.84,45.47l7.22,4.32c0-.36,1.08,0,2.32.42C493.81,47.79,488.93,44.85,488.84,45.47Z"/><path class="cls-2" d="M498.38,50.21a41.28,41.28,0,0,0,6.05,3A58.27,58.27,0,0,0,498.38,50.21Z"/><path class="cls-2" d="M514,61.8c-.62-.56-1.23-1.14-1.87-1.68l-5-3.07,3.49,2.33,1.73,1.17Z"/><path class="cls-2" d="M403.67,16.13l-9.13-1c-1,.52,1.36,1.37,4.75,1.7C401.53,16.69,404.93,17,403.67,16.13Z"/><path class="cls-2" d="M429.17,27.86a9.73,9.73,0,0,1-3.43-2.56l-.91,2.33Z"/><path class="cls-2" d="M403.47,22.26c-1,.51-13.19-.35-2,1.5a24.63,24.63,0,0,1,4.38-.18c.68,0,1.08,0,.81-.26a3.71,3.71,0,0,0-.95-.44C405.22,22.71,404.48,22.51,403.47,22.26Z"/><polygon class="cls-2" points="267.94 20.57 270.19 20.02 269.02 16.11 267.94 20.57"/><path class="cls-2" d="M162.5,75.26c9.34-4.81.72-3.51,9.41-7.52.83-1-1-.32-2.75.57s-3.5,1.71-2.65.67C161.69,73.28,158.58,74.59,162.5,75.26Z"/><path class="cls-2" d="M166.51,69c.78-.69,1.59-1.44,2.42-2.29A20.9,20.9,0,0,0,166.51,69Z"/><path class="cls-2" d="M682.49,365.48c.51-2.37.76-4.74,1.13-7.12l-1.49,4.56C682.29,363.77,682.36,364.62,682.49,365.48Z"/><path class="cls-2" d="M679.92,351.69l2.63-1.63-2.24-4.3C680.39,347.37,680.53,350.49,679.92,351.69Z"/><path class="cls-2" d="M31.61,433.72l-.74-.32c-.36,1.18,0,2.7.77,5.75Z"/><polygon class="cls-2" points="66.68 516.98 65.88 515.63 65.48 519.36 66.68 516.98"/><path class="cls-2" d="M116.64,574.06c-1.07-1.12-2.41-2.15-3.64-3.3s-2.47-2.29-3.51-3.45C114.36,572,115.23,576.7,116.64,574.06Z"/></g><g class="cls-1"><path class="cls-2" d="M1231.42,336c1.81.14,1.16-1.53,1.44-1.83C1229.82,334.57,1231.5,336.46,1231.42,336Z"/><polygon class="cls-2" points="1201.5 339.83 1202.03 339.15 1197.62 340.82 1201.5 339.83"/><path class="cls-2" d="M1173.53,339.8c2.64,2.85,10.13-.46,15.12.55l.82.65,2.25-2.29C1185.66,339.07,1177.79,340.6,1173.53,339.8Z"/><path class="cls-2" d="M1158.61,333.62c.92,1.11-3.23,1,3.48.35a4.61,4.61,0,0,1-.63-.28C1160.85,333.71,1160,333.7,1158.61,333.62Z"/><path class="cls-2" d="M1161.46,333.69c2.94-.08-1.93-.93,0,0Z"/><path class="cls-2" d="M1147.85,334.33l3.88-1c-.81-.65-4.26-.8-3-1.28C1144.77,332.6,1145.59,333.25,1147.85,334.33Z"/><path class="cls-2" d="M1144.17,336.41l2-.42C1145.83,335.71,1145.3,335.62,1144.17,336.41Z"/><path class="cls-2" d="M1150.45,335.1l-4.27.89c.57.46.62,1.39,2-.32C1147.79,336.52,1148.64,335.7,1150.45,335.1Z"/><path class="cls-2" d="M1152.86,335.54c2.18.62,5,1,1.1,2C1161.38,337.15,1160.29,335.14,1152.86,335.54Z"/><path class="cls-2" d="M1172.1,342.75l2.91.84,2.52-1C1176.27,343.11,1171.92,341.86,1172.1,342.75Z"/><path class="cls-2" d="M1123.68,332.85c-.25.61,1.3,1.62,1.59,2.39l2.87-.69C1126.66,334.13,1123.87,333.75,1123.68,332.85Z"/><path class="cls-2" d="M1125.27,335.24l-4.29,1.05C1124.81,336.41,1125.51,335.91,1125.27,335.24Z"/><polygon class="cls-2" points="1143.48 339.58 1150.53 337.39 1142.12 339.61 1143.48 339.58"/><polygon class="cls-2" points="1107.29 332.77 1109.73 331.37 1105.39 333.49 1107.29 332.77"/><path class="cls-2" d="M1096.43,333c1.8-1.17-2.47-2-.57-2.69a25.51,25.51,0,0,0-7.74,2.11A16.74,16.74,0,0,1,1096.43,333Z"/><path class="cls-2" d="M1084.31,333.75a28.34,28.34,0,0,0,3.81-1.31A14.61,14.61,0,0,0,1084.31,333.75Z"/><path class="cls-2" d="M1113.67,336a4.76,4.76,0,0,0-3.37-1.74L1112,336Z"/><path class="cls-2" d="M1112.05,336,1112,336l-3.65-.09C1108.81,335.88,1109.92,335.92,1112.05,336Z"/><path class="cls-2" d="M1114.1,336h-.43C1113.84,336.15,1113.94,336.21,1114.1,336Z"/><path class="cls-2" d="M1132.24,338c-2.52,1-7.78,2-2.69,3.44C1131.35,340.3,1128.44,339.47,1132.24,338Z"/><path class="cls-2" d="M1116.19,338.13l4.56.39c-.09-.45-.91-1.11.34-1.58Z"/><polygon class="cls-2" points="1113.96 338.67 1116.19 338.13 1114.51 337.99 1113.96 338.67"/><path class="cls-2" d="M1092.12,335.35a21.62,21.62,0,0,1-6.56.92,61.75,61.75,0,0,0,7.86.52C1093.79,336.25,1094.91,335.29,1092.12,335.35Z"/><path class="cls-2" d="M1101.8,335.82c-.13,0-.31.06-.44.1C1101.63,336.06,1101.85,336.11,1101.8,335.82Z"/><path class="cls-2" d="M1061.63,336.26c.13.1.24.21.38.31,0-.1,0-.19.09-.29Z"/><path class="cls-2" d="M1093.86,337.11a6.42,6.42,0,0,0,4.25-.62,45.3,45.3,0,0,1-4.69.3C1093.26,337,1093.23,337.19,1093.86,337.11Z"/><path class="cls-2" d="M1077.63,334.55a34.32,34.32,0,0,0,3.4.94C1080,335,1078,334.1,1077.63,334.55Z"/><path class="cls-2" d="M1100.7,335.45l.3-.08C1100.35,335,1100.43,335.18,1100.7,335.45Z"/><path class="cls-2" d="M1100.7,335.45a13.07,13.07,0,0,0-2.59,1,22.71,22.71,0,0,0,3.25-.57A2.91,2.91,0,0,1,1100.7,335.45Z"/><path class="cls-2" d="M1054.37,347.23c.35-1.58,5.5-3,9.94-1.35,4.38-1.18,1.52-6.39-2.3-9.31-.14.69-.14,1.33-4.64,2.27,1.58.86,10,2,6.19,3.45-6,.82-4.88-.56-7.78-1.39,2.46,2-7.59,2.87-6.29,5.77l5.23-1C1054.82,346.1,1052.92,346.82,1054.37,347.23Z"/><path class="cls-2" d="M1070.59,336.73l1.85-.19a21.85,21.85,0,0,1-6.41-2.15c-3.08.77-3.72,1.36-3.93,1.89l9.12.22Z"/><path class="cls-2" d="M1080.76,336.53c-1.45,1.73-5.9,2.46-3.17,4.32,5.43-.12,3.81-1.44,7.05-2.18-8.77.42,2.53-1-3.81-1.94a40.9,40.9,0,0,1,4.73-.46c-1.58-.21-3.1-.47-4.53-.78l.2.1h0s0,0,0,0c.38.21.5.34.08.22a.54.54,0,0,1-.19,0,1.69,1.69,0,0,1-.39.65c-2.54-.35-.4-.45.39-.65a1.12,1.12,0,0,0,.11-.25l0,0-8.79,1A50.65,50.65,0,0,0,1080.76,336.53Z"/><path class="cls-2" d="M1124.86,345.18a.44.44,0,0,1-.28-.4C1124,345,1123.79,345.13,1124.86,345.18Z"/><path class="cls-2" d="M1121.24,344.14a4.85,4.85,0,0,1,3.25-.76c1.8.52,0,.83.09,1.4,1.25-.46,4.38-1.24.45-2.08l-.62.24c-3.54-.59-8.08-2.74-7.46-3A12.7,12.7,0,0,0,1121.24,344.14Z"/><path class="cls-2" d="M1100.75,340.77l-7.32.85,3.73,1.49-.19-.9C1101.13,342.57,1100.23,341.46,1100.75,340.77Z"/><polygon class="cls-2" points="1060.79 335.4 1061.76 333.58 1057.53 336.15 1060.79 335.4"/><polygon class="cls-2" points="1051.28 335.62 1051.63 334.04 1049.12 334.99 1051.28 335.62"/><path class="cls-2" d="M514.62,355.26l-2.15.45A12,12,0,0,0,514.62,355.26Z"/><path class="cls-2" d="M530.19,355.37l.38-.78C529.85,355,529.55,355.34,530.19,355.37Z"/><path class="cls-2" d="M817.72,335.8c-3.14-1.48-6.64-3.77-6.26-2l1,1.73A13.1,13.1,0,0,1,817.72,335.8Z"/><path class="cls-2" d="M657.76,346.16l.91.53,2.12-1.66C659.88,345.38,658.84,345.76,657.76,346.16Z"/><path class="cls-2" d="M655.55,353.34l-4.13-1.12A20.1,20.1,0,0,0,655.55,353.34Z"/><path class="cls-2" d="M429.6,357.1l-2.51,1.77C431,358.86,429.29,358,429.6,357.1Z"/><path class="cls-2" d="M953.88,336.26a33.8,33.8,0,0,0-6.75-1.05C950.39,336.21,953,337.71,953.88,336.26Z"/><path class="cls-2" d="M520.75,336.85c-1.32.31-1.88.67-1.84,1C520.26,337.61,521,337.27,520.75,336.85Z"/><path class="cls-2" d="M939.33,335.22c.47.17.94.26,1.43.41a31.74,31.74,0,0,1,6.37-.42C944.73,334.47,942,334,939.33,335.22Z"/><path class="cls-2" d="M121.24,355.67c-.22-.08-.49-.12-.7-.21C120.48,355.69,120.79,355.71,121.24,355.67Z"/><path class="cls-2" d="M31.41,338.15c.88-.1,2.33-.11,3.69-.13A13.51,13.51,0,0,0,31.41,338.15Z"/><path class="cls-2" d="M1013,334.87c2-.12.32-.2,0,0Z"/><path class="cls-2" d="M1022.82,341.73c-.43.19-.75.44-.8.84A1.44,1.44,0,0,1,1022.82,341.73Z"/><path class="cls-2" d="M919.24,346h-.18C919.66,346.36,919.56,346.29,919.24,346Z"/><path class="cls-2" d="M1016.05,335.65a18.4,18.4,0,0,0-2.58-.51A19.84,19.84,0,0,0,1016.05,335.65Z"/><path class="cls-2" d="M1015.64,334.83c.7.08,1.24.13,1.76.17C1017.66,334.71,1017.43,334.53,1015.64,334.83Z"/><path class="cls-2" d="M1010.2,335a21.51,21.51,0,0,1,3.27.18c-.4-.12-.56-.22-.46-.27C1012.42,334.89,1011.59,334.93,1010.2,335Z"/><path class="cls-2" d="M286.46,351c-.13,0-.29-.09-.43-.16C284,351.58,284.89,351.46,286.46,351Z"/><path class="cls-2" d="M765.22,353.82c.09,0,.14-.06.23-.08l-.3-.06Z"/><path class="cls-2" d="M758,355.12a7.71,7.71,0,0,1,7.17-1.44l-2.39-5Z"/><path class="cls-2" d="M477.35,355.76l5.08,1.56c-6.14,2.57-10.58,1.68-5.8,3.88.72-5.44,19.77-.56,20.48-6l3.35,1.15c-1-.06-1.11.26-2.06.21,6.52,2.6,4.84-3.93,13.25-3.16,2.92.42,5,1.21,3,1.85l6.53-1.34c1.9.11,1.43,1.05-.46.95l10-.44-.08.16a47.14,47.14,0,0,1,6.21-2.73c2.53.78-1.27.58-.62,1.26l5.51-1.32c2.25,1.41-2.32,2.77-6.13,2.57,5.15,5.42,4.57-1.37,15.68,1.8l-5.2.69c3.35,3.08,7.41,2,13.3,3.89-1.4-1-11.78-4.84-5.8-6.2a12.07,12.07,0,0,0,7.13-.49c0,1.94,3.18,1.46,7.13,1.35l-.27,2.56c4.26-.74,3.92-2,6.43-3.19,4.75.25,5.74,2.23,6.86,3.9,7.6.41-5.26-3.18,3.75-3.66,6.32,1,10.77-.06,18.34-1.6,4.42.88-.78,1.57.81,2.3l3.92-2c1,.05.66.68.5,1,3.31-.79.27-2.55,5.47-3.25,1.4-2.82,10.68,4.12,17.11.92,1.59.72-.76,1.57-.28,2.56,8.83-2.1,7.57-1.53,14.82-4.36l6.18,1.68c-4.54-1.92,1.26-4.19,6.34-6.06a41.76,41.76,0,0,0-3.91-2.12l8.1-1.38c1,.42.17,1.3-1.16,2.37.55-.21,1.08-.42,1.48-.61,2.9.94,1.4,2.42-.68,3.85-1-.51-2-1-2.92-1.58-2,1.55-3.87,3.27-3.45,4.77a8.38,8.38,0,0,1,2.65-.69c-.52.42-.86.8-.61,1.06s1.12-.3,2.44-.95l1.85,2.85.44-1.13,10.61,1.78c7.58-2.87,14.18-7.1,26.23-8.27-3,2.09-.65,3.41-.81,5.89-3.29-2.62-9.33,1.12-15.57.58,3.26.28,2.54,1.46,1.71,1.87l11.14-2.39c-.26,2,2.36,1.52,5.27,2.36-2.2-4,8.29-2.67,12.82-3.89.28,1.34-.8,2.71-6.33,2.39,6.1,3,7.88-4.71,13.86-2.14-1.35,0-2.07-.18-2.61.51,3.16-1.2,10.86-.25,9.05.92l-1.35,0c9,.47,27.27,0,28.61-3.37a17,17,0,0,1-1.72,4.78l16-11.44c-1.41,2.92,4,9.88-3.43,11.53a19.89,19.89,0,0,0,9.27-.13c-1.46-.42-3.63-4.23-1.64-4.49,5.46,3.25,3.79,1.74,10.52,4.51-2.19-.63.24-5.21,3.68-5.06-.53.68.29,4.52-1,5l8.58-4.5c-2.14.81-.38,3.81,1.54,5.08-.89-.88,7.42.09,9.7-.36l-3.63-1c9.68.68,9.56-6.33,19.17-6.09-1.16.93-2.87,5.72,2,6.28,2.24-2.3,9.92-11.08,18.42-12.85l1.63,1.31,6.52-1.5a128.85,128.85,0,0,1-21.68,13.6c3.62,1.05,1,1.56,6.44,1.44,1.91,1.23-3,1.87-4.56,1.94l12.64.8c-.56-2.69,9.66-2.7,9.18-4.94l-13.72,2.79c-.56-2.68,7.93-7.63,16.89-7.16,2.27,1.07-1.71,4.79-1.52,5.68,1.16-.92,8.5-1.76,9.32-1.11l-3.8,1.44c5,1,8.14-3.56,14.13-1,2.06.17,6.17,3.47,6.53,1.87-3.38-3.06-4-12.56-1.79-14.86.73.21,10.86,2.93,13.22,4.45,3.4,2.4-5.11,5.73-2.21,7.8.12-.74,2-1.64,2.79-1.93,2.17.62-.9,2.27,3.81,1.94.79-2.73,9.6.23,2.24-2.3,4.61-.78,4.9.56,10.32.44-1.73-1.76,4.87-6,9.49-6.78-.27.7.76,1.6,1.27,2,9.46.25,14.53,1.49,23.36,1.51.81.66,5.07,1.46,3.25,2.63,1.27-.48,2.44-1.4,5.16-1.47,5.26,2.36-6.07.37-2,3.2.34-1.59,7-2.19,10.91-3.18-1.19-2.44-9-.47-12.84.52,0-3.37,6.74-6.91,16-8.47,7.33-.84,3.18,2.18,4.45,1.7,13.76.59,11.73-5.89,23.15-3.46,4.54,2.15.21,4.28,1.22,5.83-6,.82-9.17-1.36-13.21-1.28l5,1c-1.9.72-5.89,1.26-8.06.64,3.8,1.93,23.25.37,33.87,2.15,1.89-.72,5.15-1.47,3.61-2.33l-3.36.3c-3.09-1.73,6.32-2.4,2.07-3.21,4.5-1.22,9.56-3.13,15.9-2.15l1.19,2.45c-.13-.72-4.14-1.46-5.93-.71,2.65-1.09,9.73,3.32,12.63.1l-4.45-1.69c4.53-1.24,10.12-3.84,15.74-3.07-2.55-2.42-1.29.28-5.29-2.55,3.47,3.52-14.38-.15-8.82,3.55-4.1-3.29-7.09-1.39-12.45-4.2.16.81,1.89,1.55-2.83,1.15a4.36,4.36,0,0,1-1,.71l-.32-.06.26.1c-.2.12-.22.15.1,0a5.65,5.65,0,0,1,2.4,1.23c-2.34,1.86-9.85,1.8-12.39,2.76-2.8-.38,1.17-.92-.35-1.79l-3.8,1.44c-.37-1.8-7.44-3-.84-4l-5.94-.08c-3.5-1-8.31-1.41-11.27-.65-2.8-.39-7.08,2-4.64.58l-9.31,1.12-.09-.45c-9.19-.23-18.92,3-29.42-.27a41.35,41.35,0,0,1-11.47.5l-1-1.56c-4,.55-11.93-1.55-13.64.07-4.28-4.18-19.28-.92-26.26-1.66l-.27,2a95.52,95.52,0,0,0-15.39,1.28l.37,1.79c-5.15,1.47-13.23-1.28-21.37-1.09.55-.69,2.62-.51,4.08-.09-9.73-4-20.52,2.94-29.34,0a8.73,8.73,0,0,1-5.33,0,1.79,1.79,0,0,0,.54-.09,8.2,8.2,0,0,0-.9,0c-1-.31-2-.67-3-1a12.08,12.08,0,0,0,2.56,1,47.83,47.83,0,0,0-6.78.71l-1.08-1.93-.58.06c-2.47-.71-2,.91-.67,2.36a16.3,16.3,0,0,0-3.33,1.16c-2-3.11-6.61,1.05-9.35-2.27-1.7,1.62-12.67,1.22-14,4.62-.08-.44-.82-.65.54-.68-2.81-.39-5.62-.77-8.14.18l-1.19-2.44-6.14,3.29c-3.72-1.49-5.27-2.36-1.57-4.25-8.93,2.9-7.25,1.1-14.85,4l.37-1.58c-2.71.06-7.06,2.18-8.69.87-6.08-3-30.07-.42-45.67-3.21,3,4.66-7.25-2.09-7.87,1.52-.9-1.1-3.08-1.73-.55-2.68-8,1.08-12-1.75-17.46,1.29-.91-1.1,1.71-1.61.9-2.27-.64.24-2.53,1-3.36.3s1.16-.92,2.42-1.4c-8.13.18-9,3.58-9.54,6.77-4.12-1.51-6.18-1.3-9.15.8-1.44-1.05-3.83-2.14,1.22-2.51-2.84-.16-17.36-1.53-17.65,1-.89-.65-4-.19-4.72.11-6.38-.15-6.94-.38-13.2-.14l1.73.42c-2.47,3.08-5.2.68-10.25,1l.14-.31c-11.58-2.23-5,1.06-16.42-1.47L596,342c-1.06,4.13-10.12-2.43-16.74-.85l2.39,1.09c-3.62,1.42-10.12-5.61-13.76-6.12-.79-.36,1.26-.58,2.36-.85-9.52-2.43-1.23,2.52-8.32,3.1-1.31-1.35,1.68-3.44-3.09-3.7-2.38-1.09-13.85,4.4-20.36,1.8,1.43,1.05,2.86,2.09-.44,2.88-5,.37-13.65-3.95-18.21-.66-.64-.28-.88-.56-.91-.82-3.86.85-12.55,1.41-14.87,3.2-3.57-6.63-24,3.22-23.91-2.89l-11.88.33.31-.63c-7.59-.4-10.27,1.06-12.94,2.53-1.75-.41-.47-1-.33-1.31-11.09-1.23-12.19-1-21.49,2.08l-1-2c-2.52,1.16-16-3.1-26.91-.79.1-.23.33-.61,1.19-.89-12.23,2.33-29.29-5.5-33.78,1.72L365.27,341c10.45.56-1.56,3.13,2.74,4.33-4.11.42-10.62-2.18-5.57-2.55l.79.36c1.85-3.76-13-1.33-12.71-3.89-20.55.18-40.59-1.9-59.85-2.06l2.22,2.92-6.72-.16c-1.76-.69-2.36-2.29,2.43-2.17-2.52-1.66-8,1.39-8.17,2-9.39-1.18,3.66-3.41.78-3.48l-3.9.22.88.34c-3.17,1.2-3.45,2.46-9.21,2.32-3.65-.59-1.87-1.8-3.31-1.92,0-.2-.47-.3-2.2-.08L255,337l3.39,2.31c-3.76,1.14-8-.12-4.06,2.49-5.73-4-31.57-1.44-35.09-2.7-5.25,1.69-10.43,1.66-16.86,1.45,1.6.49,2.55,3.08-3,2.76,2-5.35-10.14-2.32-14.62-6.18,4,2.56-15.75.63-9.47,4.26-4.63-.43-.28-2-3.79-3.26-11,2.07-24.25-1.35-37.85-.65-.21.7,2.06,1.78-.85,2.82l-7.19-3.51c-2.68.34-2.47,4.06-7.38,1.62.7.59,1.73,1.48-.07,1.71-26.65-3.43-54.45,2.8-81.51-3.64,3.67,1.37,1.23,1.5-1.57,1.55,1.82.33,0,1.74.31,2.69l-11.33-2.65c-2.06,2.65-12.14.18-13.32,2.71l3.58-.45c-4.77,3,6.68,6.64,6,10.47,5.34-3.4,14.09,5,22.85.17,1.94.78-1.65,1.23-.61,2.12,2.22-1.64,4.9-2,9.87-1.25l-.56.41c14-.4,20,1.22,35.65,2.29l-1.16-1.89A17.4,17.4,0,0,1,92,354c3.87-2.87-9.47-.16-6-3.33,4.48,3.86,23.78.06,26.81,4.44,5.18,0-1.52-2.19,3.66-2.17l1.38,1.19,1.31-1.53c3.4.25,5.11,1.73,5.24,2.74a17.59,17.59,0,0,0-3.23.37c4.41,1.39,12.44-.48,14,0l-5-.73c14.15-1.11,31.44.45,45.12-2l-1-.89c10.45-1.66,8.37,1,19.83.21l-.41.22a22.44,22.44,0,0,1,8.5-1.24c-2.9,1,5.44,2,1.65,3.19,11.32-1.77,5.6-1.39,13.08-4.72l1.72,1.49c2.55-1.34,2.77-2,8.49-2.44-4.69,1.28,3.66,2.26-1.6,4,12,3.24,17.84-3.28,23.36,1.47,5.51-4.11-10.4-2.28-7.31-3.16-2.59-1.34,4.55-3.07,8.32-2.66,3.84.09,6.53,5.25,16.19,5.17-1,0-1,.3-2,.28,3.62,1.05,7.09-1.42,11.52.28,2.48-2.48,5.76.14,6.47-3l-8.86.73c5-.83,9.73-4.53,18-2.74-.65.64-3.11,1.48-4.8,1.95,2.42.94,4.66-.62,7.17.34-.72,3.17-10.77.69-16.15,3.11,2.6,1.33,10.18-2.3,7.47,1.13,3.89-4.36,9.52.55,16.06-2.78l-.43,1.9a17.15,17.15,0,0,1,5.08-1.15L302.21,356c5.3-2.1,10.21,1.83,15.29.69-10.63.06-2.39-2.29-6.88-3.67,13.11-2.54,7.54,5,22.23,4.05-2,.27-7.47-1.14-4.36-2,2.8.39,6.49,1.12,8.2,2.12,9.73-.4-1.49-2,2.65-3.12,3.31,2.31,4.78-.94,9-1.68l0,1.93c11.09,1.23,2.94-4,12.92-2.53l-4.22,2.68,5.21-.7-1.07,2.2c5.66-1.63,7.42-1.21,13-.59-1.29-1.36.72-3.5,5.63-3.56,3.35,1.14-1.88,1.83,5.09,1.55-1.58,1.21-3.3,2.73-6.33.95-.31.63-1.55,1.21-1.87,1.83,3.61,1.32,9.07.3,11.59.29a9.85,9.85,0,0,1-2.73-.46l10.09-2.67c1.59.72.33,1.31-.92,1.88,2.05-.21,3.46-1.1,6.47-1.26-.78,1.56-.6,3.18-4.85,3.92l9.61-1.74c.65.68,4.94,1.87,3.69,2.45,5.33.92,13.07-3,20.14-1.82a5.44,5.44,0,0,1,2.61-.82c6.64.35,12.52,2.27,20.39.12l4.47,2.82c6.16-.64-6.05-3.55,4.22-4.61,7.26-.89,2.71,2.4,5.26,3.19,3.61-1.42,9.9-4.31,16.57-2C481.14,356,479.41,355.55,477.35,355.76Zm76-1.24c-1.47.4-4.41,1.65-5.48.51C549.57,352.82,550.86,353.88,553.37,354.52ZM669,349.87c-1.1.64-2.79.32-4.7-.41A12.09,12.09,0,0,1,669,349.87Zm322-13.43a.61.61,0,0,0-.16.09C987.46,335.78,988.63,336.07,990.91,336.44Zm6.82.83c.69-.27.64-.53.35-.8-.48.49-2,.52-3.75.38C994.81,337.36,995.69,337.71,997.73,337.27ZM264.92,338l1.33.51C263.25,339.09,264.09,338.59,264.92,338Z"/><path class="cls-2" d="M655.85,352.51a1.67,1.67,0,0,1-.63-1.05C654.64,351.79,654.62,352.16,655.85,352.51Z"/><path class="cls-2" d="M430.06,356.78a1.79,1.79,0,0,0-.23,0,.76.76,0,0,0-.23.34Z"/><path class="cls-2" d="M892,353.63a6.88,6.88,0,0,1-2.71-1C889.24,353.11,889.88,353.51,892,353.63Z"/><path class="cls-2" d="M1033.89,334l-4.37.51a9.13,9.13,0,0,1,3.94.63C1033.36,334.68,1032.52,334,1033.89,334Z"/><path class="cls-2" d="M1071.83,345.94c.64-.24,1.36,0,2-.27l-.18-.9C1070.92,344.83,1069,345.55,1071.83,345.94Z"/><path class="cls-2" d="M1037.94,340.41c.34,1.62,3.09,1.07,6.15.77a4.86,4.86,0,0,1-.54,0C1044.45,338.91,1041.19,339.66,1037.94,340.41Z"/><path class="cls-2" d="M1044.8,341.12a17.86,17.86,0,0,1,2.83,0C1048,340.17,1046.48,340.89,1044.8,341.12Z"/><path class="cls-2" d="M1006.39,336.2c1.45.42.91-2.08,1.73-1.42C1009.74,332.72,998.44,337.28,1006.39,336.2Z"/><polygon class="cls-2" points="1040.42 345.75 1039.32 343.75 1037.6 345.37 1040.42 345.75"/><path class="cls-2" d="M1016.24,344.28l4.89.56c-.07-.34.55-.54,1.31-.69C1019.43,344.09,1016.13,343.69,1016.24,344.28Z"/><path class="cls-2" d="M1022.44,344.15a12.09,12.09,0,0,0,3.94-.33A28,28,0,0,0,1022.44,344.15Z"/><polygon class="cls-2" points="1033.73 346.36 1032.28 345.94 1028.83 345.79 1033.73 346.36"/><path class="cls-2" d="M963.65,343.9l-5.34.57c-.55.69.91,1.11,2.9.83C962.49,344.83,964.47,344.56,963.65,343.9Z"/><path class="cls-2" d="M979.8,349.38a4.77,4.77,0,0,1-2.36-1.52l-.16,2.49Z"/><path class="cls-2" d="M964.22,350c-.53.69-7.74,2-1,1.83C963.78,351.1,969.13,350.53,964.22,350Z"/><polygon class="cls-2" points="883.77 346.82 885.13 346.79 884.93 342.72 883.77 346.82"/><path class="cls-2" d="M812.86,356.57c6.33,1,1.5-2.52,7.22-1.3,1.48-1-4.67-1-3.15-1.82C813.11,354.46,811.1,353.89,812.86,356.57Z"/><path class="cls-2" d="M816.93,353.45a19.62,19.62,0,0,0,2-.62A7.9,7.9,0,0,0,816.93,353.45Z"/><polygon class="cls-2" points="16.5 335.97 12.43 335.12 15.06 336.49 16.5 335.97"/><path class="cls-2" d="M8.69,339l-1-2.6-2.44,2.35C6.21,338.63,8,338.4,8.69,339Z"/><path class="cls-2" d="M564.68,359.75l.31-.63c-.63-.67-1.58-.72-3.49-.83Z"/><polygon class="cls-2" points="509.5 357.81 510.44 357.86 508.67 355.51 509.5 357.81"/><path class="cls-2" d="M463.18,360.8c1.89.1,4.11-.43,6-.33C465.07,360.9,462.67,357.87,463.18,360.8Z"/></g></g></g></svg>