<svg xmlns="http://www.w3.org/2000/svg" viewBox="0 0 634.32 522.43"><defs><style>.cls-1{opacity:0.15;}.cls-2{fill:#1f1b20;}</style></defs><title>Ativo 20</title><g id="Camada_2" data-name="Camada 2"><g id="Fundo"><g class="cls-1"><path class="cls-2" d="M633,497.26c1.66.15,1.06-1.53,1.31-1.83C631.54,495.8,633.08,497.7,633,497.26Z" transform="translate(0 0)"/><polygon class="cls-2" points="605.57 501.07 606.05 500.38 602.01 502.06 605.57 501.07"/><path class="cls-2" d="M579.91,501c2.42,2.85,9.3-.47,13.87.55l.75.65,2.06-2.3C591,500.31,583.82,501.83,579.91,501Z" transform="translate(0 0)"/><path class="cls-2" d="M566.23,494.86c.84,1.11-3,1,3.19.35a4.59,4.59,0,0,1-.58-.28C568.29,494.94,567.52,494.94,566.23,494.86Z" transform="translate(0 0)"/><path class="cls-2" d="M568.84,494.93c2.7-.08-1.77-.94,0,0Z" transform="translate(0 0)"/><path class="cls-2" d="M556.36,495.56l3.56-1c-.74-.66-3.91-.8-2.74-1.28C553.53,493.83,554.28,494.48,556.36,495.56Z" transform="translate(0 0)"/><path class="cls-2" d="M553,497.65l1.84-.42C554.51,497,554,496.86,553,497.65Z" transform="translate(0 0)"/><path class="cls-2" d="M558.74,496.34l-3.91.89c.52.46.57,1.38,1.8-.32C556.31,497.75,557.08,496.94,558.74,496.34Z" transform="translate(0 0)"/><path class="cls-2" d="M561,496.78c2,.62,4.57,1,1,2C568.77,498.38,567.77,496.38,561,496.78Z" transform="translate(0 0)"/><path class="cls-2" d="M578.6,504l2.67.83,2.31-.95C582.42,504.34,578.43,503.09,578.6,504Z" transform="translate(0 0)"/><path class="cls-2" d="M534.19,494.08c-.23.61,1.19,1.62,1.46,2.4l2.63-.7C536.93,495.37,534.37,495,534.19,494.08Z" transform="translate(0 0)"/><path class="cls-2" d="M535.65,496.48l-3.94,1C535.23,497.65,535.87,497.15,535.65,496.48Z" transform="translate(0 0)"/><polygon class="cls-2" points="552.35 500.82 558.81 498.63 551.11 500.85 552.35 500.82"/><polygon class="cls-2" points="519.16 494.01 521.39 492.6 517.42 494.73 519.16 494.01"/><path class="cls-2" d="M509.2,494.25c1.65-1.16-2.27-2-.52-2.68a21.87,21.87,0,0,0-7.1,2.1A14.23,14.23,0,0,1,509.2,494.25Z" transform="translate(0 0)"/><path class="cls-2" d="M498.08,495a22.84,22.84,0,0,0,3.5-1.31A13,13,0,0,0,498.08,495Z" transform="translate(0 0)"/><path class="cls-2" d="M525,497.22a4.3,4.3,0,0,0-3.09-1.73l1.55,1.71Z" transform="translate(0 0)"/><path class="cls-2" d="M523.52,497.25l0-.05-3.35-.1Z" transform="translate(0 0)"/><path class="cls-2" d="M525.4,497.23H525C525.16,497.39,525.25,497.45,525.4,497.23Z" transform="translate(0 0)"/><path class="cls-2" d="M542,499.27c-2.31,1-7.13,2-2.47,3.44C541.23,501.54,538.56,500.71,542,499.27Z" transform="translate(0 0)"/><path class="cls-2" d="M527.33,499.37l4.17.39c-.08-.45-.83-1.11.31-1.59Z" transform="translate(0 0)"/><polygon class="cls-2" points="525.28 499.91 527.33 499.37 525.78 499.22 525.28 499.91"/><path class="cls-2" d="M505.24,496.58a18,18,0,0,1-6,.93,50.35,50.35,0,0,0,7.21.51C506.77,497.49,507.8,496.52,505.24,496.58Z" transform="translate(0 0)"/><path class="cls-2" d="M514.12,497.06l-.4.1C514,497.3,514.17,497.35,514.12,497.06Z" transform="translate(0 0)"/><path class="cls-2" d="M477.28,497.5c.12.09.22.21.35.31,0-.1.05-.2.08-.3Z" transform="translate(0 0)"/><path class="cls-2" d="M506.84,498.34a5.52,5.52,0,0,0,3.9-.61,36,36,0,0,1-4.3.29C506.29,498.27,506.26,498.43,506.84,498.34Z" transform="translate(0 0)"/><path class="cls-2" d="M492,495.78a27.34,27.34,0,0,0,3.11.94C494.16,496.18,492.29,495.34,492,495.78Z" transform="translate(0 0)"/><path class="cls-2" d="M513.12,496.68l.27-.07C512.8,496.24,512.87,496.42,513.12,496.68Z" transform="translate(0 0)"/><path class="cls-2" d="M513.12,496.68a11.32,11.32,0,0,0-2.38,1.05,20.79,20.79,0,0,0,3-.57A2.59,2.59,0,0,1,513.12,496.68Z" transform="translate(0 0)"/><path class="cls-2" d="M470.62,508.47c.32-1.58,5.05-3.05,9.12-1.35,4-1.19,1.39-6.4-2.11-9.31-.13.69-.13,1.33-4.26,2.26,1.45.87,9.17,2,5.68,3.46-5.47.82-4.48-.56-7.14-1.4,2.26,2-7,2.88-5.76,5.78l4.79-1C471,507.34,469.29,508.06,470.62,508.47Z" transform="translate(0 0)"/><path class="cls-2" d="M485.5,498l1.7-.2a18.48,18.48,0,0,1-5.88-2.14c-2.83.77-3.41,1.36-3.61,1.88l8.37.22Z" transform="translate(0 0)"/><path class="cls-2" d="M494.82,497.77c-1.32,1.72-5.4,2.45-2.9,4.32,5-.12,3.49-1.44,6.47-2.19-8.05.43,2.31-1-3.5-1.94a32.67,32.67,0,0,1,4.34-.45c-1.45-.21-2.84-.47-4.16-.79l.19.11h0v0c.34.22.46.35.07.22a.85.85,0,0,1-.17,0,1.77,1.77,0,0,1-.37.65c-2.33-.36-.36-.45.37-.65,0-.09.09-.17.1-.26l0,0-8.06.94A43.21,43.21,0,0,0,494.82,497.77Z" transform="translate(0 0)"/><path class="cls-2" d="M535.27,506.41a.43.43,0,0,1-.26-.4C534.49,506.22,534.3,506.37,535.27,506.41Z" transform="translate(0 0)"/><path class="cls-2" d="M532,505.37a4.1,4.1,0,0,1,3-.75c1.65.52,0,.83.07,1.39,1.15-.45,4-1.23.42-2.07l-.57.23c-3.24-.59-7.41-2.74-6.85-3A12.27,12.27,0,0,0,532,505.37Z" transform="translate(0 0)"/><path class="cls-2" d="M513.16,502l-6.71.85,3.41,1.49-.17-.9C513.51,503.8,512.68,502.7,513.16,502Z" transform="translate(0 0)"/><polygon class="cls-2" points="476.51 496.64 477.4 494.82 473.52 497.39 476.51 496.64"/><polygon class="cls-2" points="467.79 496.86 468.11 495.27 465.81 496.23 467.79 496.86"/><path class="cls-2" d="M5.93,467.15l-.45-2A10.24,10.24,0,0,0,5.93,467.15Z" transform="translate(0 0)"/><path class="cls-2" d="M5.83,481.42l.78.35C6.18,481.11,5.86,480.84,5.83,481.42Z" transform="translate(0 0)"/><path class="cls-2" d="M253.57,497c-2.87-1.48-6.08-3.77-5.74-2l.89,1.73A10.86,10.86,0,0,1,253.57,497Z" transform="translate(0 0)"/><path class="cls-2" d="M106.86,507.4l.84.53,1.94-1.66Z" transform="translate(0 0)"/><path class="cls-2" d="M104.83,514.58l-3.78-1.12A18.37,18.37,0,0,0,104.83,514.58Z" transform="translate(0 0)"/><path class="cls-2" d="M4.09,389.16l-1.76-2.3C2.34,390.46,3.23,388.88,4.09,389.16Z" transform="translate(0 0)"/><path class="cls-2" d="M378.45,497.5a28.52,28.52,0,0,0-6.18-1.05C375.25,497.45,377.66,498.94,378.45,497.5Z" transform="translate(0 0)"/><path class="cls-2" d="M24.35,472.76c-.31-1.2-.67-1.72-1.06-1.68C23.59,472.32,23.92,473,24.35,472.76Z" transform="translate(0 0)"/><path class="cls-2" d="M365.11,496.46c.43.17.86.26,1.31.41a26.18,26.18,0,0,1,5.85-.42C370.06,495.71,367.54,495.25,365.11,496.46Z" transform="translate(0 0)"/><path class="cls-2" d="M5.53,106.35c.08-.21.12-.45.21-.64C5.5,105.65,5.49,105.93,5.53,106.35Z" transform="translate(0 0)"/><path class="cls-2" d="M23,24c.11.81.11,2.13.14,3.38A11.85,11.85,0,0,0,23,24Z" transform="translate(0 0)"/><path class="cls-2" d="M432.69,496.1c1.85-.11.29-.19,0,0Z" transform="translate(0 0)"/><path class="cls-2" d="M441.69,503a1.14,1.14,0,0,0-.74.85A1.46,1.46,0,0,1,441.69,503Z" transform="translate(0 0)"/><path class="cls-2" d="M346.68,507.26h-.16C347.07,507.59,347,507.53,346.68,507.26Z" transform="translate(0 0)"/><path class="cls-2" d="M435.47,496.89a15.41,15.41,0,0,0-2.36-.51A16.73,16.73,0,0,0,435.47,496.89Z" transform="translate(0 0)"/><path class="cls-2" d="M435.1,496.07l1.62.17C437,496,436.74,495.77,435.1,496.07Z" transform="translate(0 0)"/><path class="cls-2" d="M430.11,496.2a18.12,18.12,0,0,1,3,.18c-.36-.12-.52-.22-.42-.28Z" transform="translate(0 0)"/><path class="cls-2" d="M10.18,257.88a4,4,0,0,1,.16-.39C9.62,255.62,9.73,256.44,10.18,257.88Z" transform="translate(0 0)"/><path class="cls-2" d="M205.42,515.06a1.33,1.33,0,0,0,.21-.09l-.27-.06Z" transform="translate(0 0)"/><path class="cls-2" d="M198.78,516.35c2.83-2.16,4.44-1.89,6.58-1.44l-2.2-5Z" transform="translate(0 0)"/><path class="cls-2" d="M5.43,433l-1.56,4.66C1.31,432,2.19,427.92,0,432.3c5.43.66.56,18.13,6,18.78l-1.14,3.08c0-.88-.27-1-.21-1.89-2.6,6,3.93,4.44,3.15,12.15-.41,2.68-1.2,4.56-1.85,2.73l1.35,6c-.11,1.74-1,1.32-1-.42l.44,9.13-.16-.07a42,42,0,0,1,2.73,5.7c-.78,2.32-.58-1.16-1.26-.57l.66,2.53.33,1.26c.11.45.22.76.33,1.42-.35.72-.7.94-1,.72a1.48,1.48,0,0,1-.46-.62,5.58,5.58,0,0,1-.21-.52c-.07-.21-.13-.29-.19-.46a12.51,12.51,0,0,1-.68-4.9c-2.72,2.36-2.37,3.41-1.75,5.14a3.71,3.71,0,0,1,.12.5l.12.58q.12.58.24,1.26a26.08,26.08,0,0,1,.32,3.05,46.9,46.9,0,0,1-.85,10l-.69-7.79A26.87,26.87,0,0,0,2,508.71c-.35,3.6-.51,7.55-1.21,12.9L2.7,522a13.89,13.89,0,0,0-1.59-.66A106,106,0,0,1,4,510c1-3,2.06-3.94,2.63-.74A25.44,25.44,0,0,0,6.47,516c1.24-.13,2.69-.34,4.3-.66-1.64,1.93,3.59,1.46,9.48,1.35-.5.85-1,1.7-1.53,2.56a21.51,21.51,0,0,0,6.67-1.44A30.76,30.76,0,0,1,29.47,516l1.23.07.42,0,.34.06a7,7,0,0,1,1.2.31,5.47,5.47,0,0,1,1.72.93,8.83,8.83,0,0,1,1.89,2.49c7,.4-4.82-3.18,3.44-3.66,5.81,1,9.88-.07,16.82-1.6,4.06.88-.71,1.56.75,2.3l3.6-2c.88,0,.6.67.45,1,3-.79.25-2.56,5-3.25,1.29-2.82,9.79,4.12,15.7.91,1.45.73-.71,1.57-.26,2.56,8.1-2.1,6.94-1.52,13.59-4.35l5.67,1.68c-4.17-1.92,1.15-4.19,5.81-6.06a39.78,39.78,0,0,0-3.59-2.13l7.44-1.37c.9.42.15,1.3-1.07,2.37.51-.22,1-.42,1.36-.62,2.66,1,1.28,2.42-.62,3.85-.91-.5-1.81-1-2.68-1.57-1.84,1.55-3.55,3.27-3.17,4.77A7,7,0,0,1,107,512c-.48.42-.78.8-.56,1s1-.29,2.24-.95l1.69,2.85.41-1.13,9.73,1.79c7-2.87,13-7.1,24.06-8.28-2.74,2.09-.59,3.42-.74,5.9-3-2.63-8.56,1.11-14.28.58,3,.27,2.33,1.46,1.57,1.87l10.21-2.39c-.23,2,2.17,1.52,4.83,2.36-2-4,7.61-2.67,11.77-3.9.26,1.35-.74,2.72-5.81,2.4,5.59,3,7.23-4.71,12.71-2.15-1.23,0-1.9-.17-2.39.51,2.89-1.19,10-.24,8.3.93l-1.24,0c8.22.48,25,0,26.24-3.37a18,18,0,0,1-1.58,4.79l14.66-11.45c-1.29,2.93,3.67,9.88-3.15,11.53a16.63,16.63,0,0,0,8.5-.12c-1.33-.42-3.32-4.23-1.5-4.5,5,3.26,3.48,1.74,9.64,4.52-2-.63.23-5.21,3.39-5.07-.5.69.26,4.53-.89,5l7.86-4.49c-2,.81-.34,3.81,1.42,5.08-.82-.88,6.8.08,8.89-.36l-3.33-1c8.88.68,8.77-6.32,17.59-6.09-1.07.93-2.64,5.72,1.84,6.29,2.06-2.3,9.1-11.08,16.89-12.86l1.5,1.32,6-1.5a118.19,118.19,0,0,1-19.88,13.6c3.32,1,.92,1.55,5.9,1.43,1.76,1.24-2.71,1.88-4.18,2l11.59.8c-.51-2.7,8.86-2.7,8.42-4.94l-12.59,2.79c-.51-2.69,7.28-7.64,15.49-7.16,2.09,1.07-1.56,4.78-1.39,5.68,1.07-.92,7.8-1.77,8.55-1.11l-3.48,1.44c4.57,1,7.46-3.57,13-1,1.9.17,5.66,3.46,6,1.87-3.09-3.07-3.69-12.56-1.63-14.86.66.2,10,2.93,12.12,4.44,3.12,2.41-4.69,5.74-2,7.81.11-.74,1.84-1.65,2.56-1.94,2,.63-.83,2.28,3.5,1.95.72-2.73,8.8.23,2.05-2.31,4.23-.78,4.49.56,9.46.44-1.58-1.76,4.47-6,8.71-6.77-.25.69.7,1.6,1.16,2,8.68.24,13.34,1.48,21.43,1.51.74.66,4.65,1.45,3,2.63,1.17-.48,2.24-1.41,4.73-1.47,4.83,2.35-5.56.36-1.88,3.2.31-1.59,6.45-2.19,10-3.18-1.1-2.45-8.22-.47-11.77.52,0-3.38,6.17-6.91,14.63-8.47,6.72-.84,2.92,2.18,4.08,1.7,12.63.59,10.76-5.9,21.24-3.46,4.16,2.15.19,4.28,1.11,5.83-5.48.81-8.41-1.36-12.12-1.28l4.57,1c-1.74.71-5.39,1.26-7.39.63,3.49,1.94,21.33.37,31.07,2.16,1.73-.72,4.72-1.47,3.3-2.33l-3.08.3c-2.83-1.74,5.8-2.4,1.9-3.21,4.14-1.22,8.77-3.14,14.59-2.16l1.09,2.46c-.12-.72-3.8-1.46-5.44-.72,2.43-1.08,8.93,3.32,11.58.11l-4.07-1.7c4.15-1.23,9.28-3.83,14.43-3.06-2.34-2.42-1.19.28-4.85-2.56,3.18,3.53-13.19-.15-8.09,3.56-3.76-3.29-6.51-1.4-11.42-4.2.15.81,1.74,1.55-2.59,1.15a4.62,4.62,0,0,1-1,.71l-.3-.06.24.1c-.18.12-.2.14.09,0a5,5,0,0,1,2.21,1.23c-2.15,1.86-9,1.8-11.36,2.76-2.57-.38,1.07-.93-.33-1.79l-3.48,1.44c-.34-1.8-6.83-3-.77-4l-5.45-.08c-3.21-1-7.62-1.41-10.34-.65-2.57-.39-6.49,2-4.25.58l-8.54,1.11-.08-.45c-8.43-.22-17.36,3-27-.26a34.86,34.86,0,0,1-10.52.49l-.93-1.55c-3.64.54-10.94-1.56-12.5.06-3.93-4.18-17.69-.91-24.09-1.65l-.25,2A80.35,80.35,0,0,0,304,497.52l.34,1.8c-4.72,1.47-12.14-1.28-19.61-1.1.51-.68,2.41-.5,3.75-.09-8.92-4.05-18.82,2.95-26.91,0a7.38,7.38,0,0,1-4.89,0,1.59,1.59,0,0,0,.5-.1c-.21,0-.52,0-.83,0-.89-.31-1.81-.67-2.8-.95a11.42,11.42,0,0,0,2.35,1,40.36,40.36,0,0,0-6.22.71l-1-1.93c-.19,0-.34,0-.54.06-2.27-.71-1.82.91-.61,2.36a13.22,13.22,0,0,0-3.06,1.16c-1.84-3.11-6.06,1.05-8.58-2.27-1.56,1.62-11.62,1.22-12.85,4.62-.08-.44-.76-.66.49-.68-2.58-.39-5.15-.78-7.46.18l-1.1-2.45-5.62,3.29c-3.42-1.49-4.84-2.35-1.45-4.24-8.19,2.9-6.65,1.09-13.62,4l.34-1.59c-2.49.06-6.47,2.18-8,.87-5.57-3-27.58-.41-41.88-3.21,2.77,4.66-6.65-2.09-7.22,1.53-.83-1.11-2.83-1.73-.51-2.69-7.3,1.09-11-1.75-16,1.3-.83-1.11,1.56-1.62.82-2.27-.58.24-2.32,1-3.08.3s1.07-.93,2.23-1.41c-7.46.19-8.22,3.59-8.76,6.78-3.78-1.51-5.66-1.3-8.39.79-1.32-1-3.51-2.13,1.12-2.51-2.61-.15-15.92-1.53-16.19,1-.82-.65-3.64-.19-4.33.1-5.85-.15-6.36-.38-12.11-.14l1.59.42c-2.26,3.09-4.77.69-9.4,1.06l.13-.32c-10.62-2.22-4.58,1.07-15.06-1.47l.57,1.92c-1,4.13-9.28-2.43-15.36-.86l2.2,1.1c-1.64.71-4-.7-6.26-2.34a10.66,10.66,0,0,1-1.57-2.41c-.34-.71-.52-1.25-.78-1.38-.11-.36.66-.57,1-.84-.52-.61-.69-.75-.94-.62a2.9,2.9,0,0,0-.8,1c-.61,1-1.17,2.39-3.11,2.68a10.82,10.82,0,0,1,1.66-2.26c.56-.73.88-1.31.39-1.44,0-.09,0-.13-.05-.14.13-.58-4.34-.8-1.95-6.78-1,1.31-2.08,2.62-2.87-.4-.37-4.63,3.95-12.52.66-16.71.28-.59.56-.81.81-.83-.84-3.54-1.41-11.51-3.19-13.64,6.62-3.27-3.23-22,2.89-21.93l-.33-10.89.62.28c.41-7-1.06-9.42-2.52-11.87.41-1.61,1-.43,1.3-.3C23.29,402.56,23,401.55,20,393l2-.88c-1.15-2.32,3.11-14.71.8-24.69a1.65,1.65,0,0,1,.89,1.1c-2.33-11.22,5.5-26.87-1.72-31l-1.78-7.41c-.56,9.58-3.13-1.42-4.33,2.52-.43-3.77,2.17-9.74,2.54-5.11l-.36.72c3.77,1.7,1.34-11.91,3.9-11.65-.19-18.85,1.9-37.23,2.06-54.89l-2.93,2,.17-6.16c.68-1.62,2.29-2.17,2.17,2.22,1.66-2.31-1.39-7.37-2-7.49,1.19-8.61,3.42,3.36,3.49.72l-.22-3.58-.34.8c-1.2-2.9-2.47-3.16-2.32-8.44.58-3.34,1.8-1.72,1.91-3,.21,0,.31-.44.09-2l.25-7.76-2.31,3.1c-1.14-3.44.12-7.3-2.5-3.71,4-5.26,1.45-29,2.7-32.19-1.68-4.81-1.65-9.57-1.45-15.46-.48,1.46-3.08,2.34-2.76-2.74,5.36,1.86,2.33-9.31,6.18-13.42-2.55,3.67-.63-14.44-4.26-8.68.44-4.24,2-.26,3.27-3.48-2.08-10.09,1.35-22.24.65-34.71-.7-.2-1.78,1.89-2.83-.79l3.52-6.58c-.35-2.47-4.06-2.27-1.62-6.77-.59.63-1.48,1.58-1.71-.07,3.43-24.44-2.81-49.94,3.63-74.76-1.36,3.37-1.49,1.13-1.54-1.44-.33,1.67-1.74,0-2.7.29l2.65-10.39C20.49,15.35,23,6.1,20.42,5l.46,3.29c-3-4.37-6.64,6.13-10.47,5.49,3.39,4.9-5,12.92-.17,21-.78,1.77-1.23-1.52-2.12-.57,1.64,2,2,4.5,1.25,9.06L9,42.72c.4,12.82-1.22,18.31-2.3,32.7l1.9-1.06a15.12,15.12,0,0,1-1.32,5.19c2.87,3.55.16-8.69,3.33-5.46C6.71,78.2,10.51,95.9,6.13,98.68c0,4.76,2.19-1.4,2.16,3.36L7.11,103.3l1.53,1.2c-.26,3.12-1.74,4.69-2.74,4.81a14.7,14.7,0,0,0-.37-3c-1.4,4,.48,11.4,0,12.79l.73-4.57c1.11,13-.44,28.84,2,41.39l.89-1c1.65,9.58-1,7.68-.22,18.19l-.21-.38a19.07,19.07,0,0,1,1.24,7.8c-1-2.66-2,5-3.19,1.51,1.77,10.39,1.39,5.14,4.71,12L10,195.7c1.34,2.34,2,2.54,2.43,7.79-1.27-4.31-2.26,3.35-3.94-1.48C5.24,213,11.76,218.38,7,223.44c4.11,5.06,2.28-9.54,3.16-6.71,1.34-2.37,3.07,4.18,2.66,7.64-.1,3.52-5.26,6-5.18,14.85,0-.88-.29-.94-.27-1.82-1,3.31,1.42,6.49-.28,10.56,2.48,2.28-.15,5.28,3,5.93l-.73-8.12c.82,4.61,4.53,8.92,2.73,16.51-.64-.59-1.48-2.85-1.94-4.4-.94,2.22.61,4.28-.34,6.58-3.17-.66-.69-9.88-3.11-14.81C5.39,252,9,259,5.59,256.5c4.37,3.57-.55,8.73,2.78,14.73l-1.89-.4a14.47,14.47,0,0,1,1.14,4.67l-2.46-3.17c2.1,4.86-1.83,9.36-.69,14-.06-9.75,2.29-2.19,3.67-6.31,2.54,12-5,6.92-4.05,20.39-.27-1.83,1.14-6.85,2-4C5.71,299,5,302.38,4,304c.39,8.92,2-1.38,3.12,2.42-2.31,3,.94,4.38,1.68,8.3l-1.93,0c-1.24,10.17,4,2.7,2.53,11.85l-2.68-3.87.69,4.78-2.19-1c1.63,5.19,1.2,6.81.59,11.9,1.36-1.18,3.5.66,3.56,5.17-1.15,3.07-1.83-1.72-1.56,4.66-1.2-1.44-2.72-3-.94-5.8-.63-.28-1.21-1.42-1.83-1.71C3.71,344,4.72,349,4.74,351.31a8.35,8.35,0,0,1,.45-2.5l2.68,9.26c-.73,1.45-1.31.3-1.88-.85.21,1.88,1.1,3.18,1.26,5.93-1.57-.71-3.19-.54-3.92-4.44l1.74,8.82c-.69.58-1.88,4.52-2.45,3.38-.93,4.88,3,12,1.82,18.47a4.68,4.68,0,0,1,.82,2.39c-.35,6.09-2.28,11.49-.13,18.71l-2.81,4.09c.64,5.66,3.54-5.54,4.6,3.87.9,6.67-2.39,2.49-3.18,4.83,1.42,3.31,4.3,9.07,2,15.2C5.23,436.44,5.64,434.85,5.43,433Zm1.25,76c-.2-.91-.62-2.25-.84-3.7a6.63,6.63,0,0,1,.32-4,2.88,2.88,0,0,1,1.33,2.86C7.42,505.38,7,507,6.68,509Zm110.44,2.11c-1,.64-2.55.32-4.31-.41A10,10,0,0,1,117.12,511.11Zm295.29-13.44-.14.1C409.26,497,410.33,497.31,412.41,497.67Zm6.26.84c.63-.27.59-.54.32-.81-.43.49-1.84.52-3.44.39C416,498.59,416.8,498.94,418.67,498.51ZM23.16,238.12l-.5,1.22C22.1,236.59,22.61,237.36,23.16,238.12Z" transform="translate(0 0)"/><path class="cls-2" d="M105.11,513.75a1.77,1.77,0,0,1-.58-1C104,513,104,513.4,105.11,513.75Z" transform="translate(0 0)"/><path class="cls-2" d="M4.42,389.59a1.49,1.49,0,0,0,0-.21.79.79,0,0,0-.35-.22Z" transform="translate(0 0)"/><path class="cls-2" d="M321.72,514.87a6.23,6.23,0,0,1-2.48-1C319.17,514.35,319.75,514.75,321.72,514.87Z" transform="translate(0 0)"/><path class="cls-2" d="M451.84,495.23l-4,.5a7.84,7.84,0,0,1,3.61.64C451.35,495.91,450.59,495.26,451.84,495.23Z" transform="translate(0 0)"/><path class="cls-2" d="M486.64,507.17c.58-.23,1.24,0,1.82-.26l-.16-.9C485.8,506.07,484.06,506.79,486.64,507.17Z" transform="translate(0 0)"/><path class="cls-2" d="M455.55,501.64c.32,1.63,2.83,1.07,5.64.77a2.78,2.78,0,0,1-.5,0C461.52,500.14,458.53,500.89,455.55,501.64Z" transform="translate(0 0)"/><path class="cls-2" d="M461.84,502.36a14.14,14.14,0,0,1,2.6,0C464.77,501.41,463.39,502.13,461.84,502.36Z" transform="translate(0 0)"/><path class="cls-2" d="M426.61,497.43c1.33.42.84-2.07,1.59-1.41C429.69,494,419.32,498.52,426.61,497.43Z" transform="translate(0 0)"/><polygon class="cls-2" points="457.82 506.99 456.82 504.99 455.24 506.6 457.82 506.99"/><path class="cls-2" d="M435.65,505.52l4.49.55c-.07-.33.5-.53,1.2-.68C438.58,505.32,435.54,504.93,435.65,505.52Z" transform="translate(0 0)"/><path class="cls-2" d="M441.34,505.39a10.19,10.19,0,0,0,3.61-.33A23.62,23.62,0,0,0,441.34,505.39Z" transform="translate(0 0)"/><polygon class="cls-2" points="451.69 507.59 450.36 507.17 447.19 507.03 451.69 507.59"/><path class="cls-2" d="M387.41,505.13l-4.89.58c-.5.68.83,1.1,2.66.83C386.35,506.06,388.16,505.8,387.41,505.13Z" transform="translate(0 0)"/><path class="cls-2" d="M402.22,510.62c-1.32-.41-1.41-.86-2.16-1.52l-.14,2.48Z" transform="translate(0 0)"/><path class="cls-2" d="M387.94,511.2c-.49.69-7.1,2-.9,1.82C387.54,512.34,392.44,511.77,387.94,511.2Z" transform="translate(0 0)"/><polygon class="cls-2" points="314.15 508.06 315.4 508.03 315.22 503.95 314.15 508.06"/><path class="cls-2" d="M249.11,517.8c5.81,1,1.38-2.51,6.63-1.29,1.36-1-4.29-1-2.89-1.83C249.34,515.7,247.51,515.13,249.11,517.8Z" transform="translate(0 0)"/><path class="cls-2" d="M252.85,514.68a15.37,15.37,0,0,0,1.79-.62A7.18,7.18,0,0,0,252.85,514.68Z" transform="translate(0 0)"/><polygon class="cls-2" points="25.23 10.29 26.08 6.55 24.71 8.96 25.23 10.29"/><path class="cls-2" d="M22.21,3.12l2.59-.88L22.46,0C22.57.84,22.79,2.48,22.21,3.12Z" transform="translate(0 0)"/><path class="cls-2" d="M13,521l.91-.62c-.67-.68-2.21-.73-5.31-.83C10,520,11.43,520.5,13,521Z" transform="translate(0 0)"/><polygon class="cls-2" points="3.39 462.44 3.34 463.32 5.69 461.69 3.39 462.44"/><path class="cls-2" d="M.4,420c-.1,1.73.42,3.77.32,5.51C.3,421.7,3.33,419.5.4,420Z" transform="translate(0 0)"/><path class="cls-2" d="M16.74,516.74c-1.62-.15-1,1.53-1.28,1.83C18.17,518.2,16.67,516.3,16.74,516.74Z" transform="translate(0 0)"/><polygon class="cls-2" points="43.48 512.93 43 513.62 46.95 511.94 43.48 512.93"/><path class="cls-2" d="M68.48,513c-2.36-2.85-9.06.47-13.51-.55l-.74-.65-2,2.3C57.64,513.69,64.67,512.17,68.48,513Z" transform="translate(0 0)"/><path class="cls-2" d="M81.81,519.14c-.82-1.11,2.89-1-3.11-.35a5.07,5.07,0,0,1,.57.28C79.81,519.06,80.55,519.06,81.81,519.14Z" transform="translate(0 0)"/><path class="cls-2" d="M79.27,519.07c-2.64.08,1.72.94,0,0Z" transform="translate(0 0)"/><path class="cls-2" d="M91.43,518.44l-3.47,1c.72.66,3.81.8,2.66,1.28C94.18,520.17,93.45,519.52,91.43,518.44Z" transform="translate(0 0)"/><path class="cls-2" d="M94.72,516.35l-1.8.42C93.23,517.05,93.71,517.14,94.72,516.35Z" transform="translate(0 0)"/><path class="cls-2" d="M89.11,517.66l3.81-.89c-.5-.46-.56-1.38-1.75.32C91.48,516.25,90.73,517.06,89.11,517.66Z" transform="translate(0 0)"/><path class="cls-2" d="M87,517.22c-2-.62-4.46-1-1-2C79.33,515.62,80.31,517.62,87,517.22Z" transform="translate(0 0)"/><path class="cls-2" d="M69.76,510l-2.6-.83-2.25.95C66,509.66,69.92,510.91,69.76,510Z" transform="translate(0 0)"/><path class="cls-2" d="M113,519.92c.22-.61-1.16-1.62-1.42-2.4l-2.56.7C110.36,518.63,112.86,519,113,519.92Z" transform="translate(0 0)"/><path class="cls-2" d="M111.61,517.52l3.83-1C112,516.35,111.39,516.85,111.61,517.52Z" transform="translate(0 0)"/><polygon class="cls-2" points="95.33 513.18 89.04 515.38 96.55 513.15 95.33 513.18"/><polygon class="cls-2" points="127.67 519.99 125.5 521.4 129.37 519.27 127.67 519.99"/><path class="cls-2" d="M137.38,519.75c-1.6,1.16,2.21,2,.51,2.68a20.94,20.94,0,0,0,6.92-2.1A13.54,13.54,0,0,1,137.38,519.75Z" transform="translate(0 0)"/><path class="cls-2" d="M148.21,519a21.94,21.94,0,0,0-3.4,1.31A12.41,12.41,0,0,0,148.21,519Z" transform="translate(0 0)"/><path class="cls-2" d="M122,516.78a4.21,4.21,0,0,0,3,1.73l-1.51-1.71Z" transform="translate(0 0)"/><path class="cls-2" d="M123.43,516.75l0,0,3.26.1Z" transform="translate(0 0)"/><path class="cls-2" d="M121.59,516.77H122C121.83,516.61,121.74,516.55,121.59,516.77Z" transform="translate(0 0)"/><path class="cls-2" d="M105.38,514.73c2.25-1,7-2,2.41-3.44C106.17,512.46,108.77,513.29,105.38,514.73Z" transform="translate(0 0)"/><path class="cls-2" d="M119.72,514.63l-4.07-.39c.08.45.81,1.11-.3,1.59Z" transform="translate(0 0)"/><polygon class="cls-2" points="121.71 514.09 119.72 514.63 121.23 514.78 121.71 514.09"/><path class="cls-2" d="M141.24,517.42a17.14,17.14,0,0,1,5.85-.93,47.67,47.67,0,0,0-7-.51C139.75,516.51,138.74,517.48,141.24,517.42Z" transform="translate(0 0)"/><path class="cls-2" d="M132.58,516.94c.12,0,.28-.06.39-.1C132.73,516.7,132.54,516.65,132.58,516.94Z" transform="translate(0 0)"/><path class="cls-2" d="M168.49,516.5c-.12-.09-.22-.21-.34-.31,0,.1-.05.2-.08.3Z" transform="translate(0 0)"/><path class="cls-2" d="M139.68,515.66a5.23,5.23,0,0,0-3.79.61,33.87,33.87,0,0,1,4.18-.29C140.22,515.73,140.24,515.57,139.68,515.66Z" transform="translate(0 0)"/><path class="cls-2" d="M154.18,518.22a25.85,25.85,0,0,0-3-.94C152,517.82,153.86,518.66,154.18,518.22Z" transform="translate(0 0)"/><path class="cls-2" d="M133.56,517.32l-.26.07C133.88,517.76,133.81,517.58,133.56,517.32Z" transform="translate(0 0)"/><path class="cls-2" d="M133.56,517.32a11.1,11.1,0,0,0,2.33-1.05,19.89,19.89,0,0,0-2.92.57A2.34,2.34,0,0,1,133.56,517.32Z" transform="translate(0 0)"/><path class="cls-2" d="M175,505.53c-.31,1.58-4.91,3.05-8.88,1.35-3.91,1.19-1.36,6.4,2.06,9.31.12-.69.12-1.33,4.14-2.26-1.41-.87-8.93-2-5.53-3.46,5.33-.82,4.37.56,7,1.4-2.21-2,6.78-2.88,5.62-5.78l-4.68,1C174.58,506.66,176.27,505.94,175,505.53Z" transform="translate(0 0)"/><path class="cls-2" d="M160.48,516l-1.66.2a17.76,17.76,0,0,1,5.73,2.14c2.76-.77,3.33-1.36,3.52-1.88l-8.16-.22Z" transform="translate(0 0)"/><path class="cls-2" d="M151.39,516.23c1.29-1.72,5.27-2.45,2.83-4.32-4.85.12-3.4,1.44-6.3,2.19,7.84-.43-2.26,1,3.41,1.94a31.13,31.13,0,0,1-4.24.45c1.42.21,2.78.47,4.06.79l-.18-.11h0s0,0,0,0c-.34-.22-.45-.35-.07-.22a.71.71,0,0,1,.17,0,1.59,1.59,0,0,1,.35-.65c2.27.36.36.45-.35.65a1.39,1.39,0,0,0-.1.26l0,0,7.85-.94A41.09,41.09,0,0,0,151.39,516.23Z" transform="translate(0 0)"/><path class="cls-2" d="M112,507.59a.44.44,0,0,1,.25.4C112.74,507.78,112.93,507.63,112,507.59Z" transform="translate(0 0)"/><path class="cls-2" d="M115.21,508.63a4,4,0,0,1-2.91.75c-1.61-.52,0-.83-.07-1.39-1.12.45-3.92,1.23-.41,2.07l.56-.23c3.16.59,7.22,2.74,6.67,3A12.1,12.1,0,0,0,115.21,508.63Z" transform="translate(0 0)"/><path class="cls-2" d="M133.52,512l6.55-.85-3.34-1.49.17.9C133.18,510.2,134,511.3,133.52,512Z" transform="translate(0 0)"/><polygon class="cls-2" points="169.24 517.36 168.37 519.18 172.15 516.61 169.24 517.36"/><polygon class="cls-2" points="177.74 517.14 177.42 518.73 179.67 517.77 177.74 517.14"/><path class="cls-2" d="M153.06,243.31l-1.86-.45A9.32,9.32,0,0,0,153.06,243.31Z" transform="translate(0 0)"/><path class="cls-2" d="M164.79,250l.68-.51C164.71,249.52,164.33,249.66,164.79,250Z" transform="translate(0 0)"/><path class="cls-2" d="M325.92,441.74c.79-3.11,2.28-6.82.63-6.07l-1.49,1.26A11,11,0,0,1,325.92,441.74Z" transform="translate(0 0)"/><path class="cls-2" d="M255.05,316.12c0,.31.06.64.09,1l2.47.45Z" transform="translate(0 0)"/><path class="cls-2" d="M248.25,319.09c-.47-1.17-.89-2.38-1.39-3.52A21,21,0,0,0,248.25,319.09Z" transform="translate(0 0)"/><path class="cls-2" d="M84,219.16l-2.51,1.23C84.72,221.15,83.49,220,84,219.16Z" transform="translate(0 0)"/><path class="cls-2" d="M264.79,516.5a27.1,27.1,0,0,0,6,1C267.9,516.55,265.56,515.06,264.79,516.5Z" transform="translate(0 0)"/><path class="cls-2" d="M166.64,229.65c-1.19-.34-1.83-.25-2,.11C165.9,230.06,166.65,230.16,166.64,229.65Z" transform="translate(0 0)"/><path class="cls-2" d="M277.79,517.54c-.42-.17-.84-.26-1.27-.41a25,25,0,0,1-5.7.42C273,518.29,275.43,518.75,277.79,517.54Z" transform="translate(0 0)"/><path class="cls-2" d="M25.35,403.37a5.64,5.64,0,0,1-.21.62C25.38,404.05,25.39,403.77,25.35,403.37Z" transform="translate(0 0)"/><path class="cls-2" d="M7.84,483.66c-.1-.79-.11-2.08-.13-3.3A10.82,10.82,0,0,0,7.84,483.66Z" transform="translate(0 0)"/><path class="cls-2" d="M211.94,517.9c-1.81.11-.29.19,0,0Z" transform="translate(0 0)"/><path class="cls-2" d="M203.17,511a1.16,1.16,0,0,0,.72-.85A1.47,1.47,0,0,1,203.17,511Z" transform="translate(0 0)"/><path class="cls-2" d="M295.75,506.74h.15C295.37,506.41,295.46,506.47,295.75,506.74Z" transform="translate(0 0)"/><path class="cls-2" d="M209.22,517.11a15,15,0,0,0,2.31.51A15.78,15.78,0,0,0,209.22,517.11Z" transform="translate(0 0)"/><path class="cls-2" d="M209.59,517.93l-1.58-.17C207.79,518.05,208,518.23,209.59,517.93Z" transform="translate(0 0)"/><path class="cls-2" d="M214.45,517.8a17.16,17.16,0,0,1-2.92-.18c.35.12.5.22.41.28Z" transform="translate(0 0)"/><path class="cls-2" d="M20.7,255.71a4.07,4.07,0,0,1-.17.38C21.25,257.91,21.14,257.11,20.7,255.71Z" transform="translate(0 0)"/><path class="cls-2" d="M295.37,401.73c0,.07.1.1.15.16l0-.26Z" transform="translate(0 0)"/><path class="cls-2" d="M291.84,396.36c3,1.68,3.32,3.22,3.64,5.27l3.89-3.76Q295.59,397.07,291.84,396.36Z" transform="translate(0 0)"/><path class="cls-2" d="M123.56,230.31l3.5,3.06c-5.88.43-9-1.78-6.06,1.77,1.27-2.41,5.28-1,9.25.47,3.91,1.64,7.82,3.26,9.24.93l2.16,2.23c-.74-.39-1-.15-1.71-.54,4,4.65,5.48-1.77,11.68,2.26,2.08,1.54,3.28,3,1.44,2.82l2.84.7c.95.23,1.89.48,2.81.77,1.38.92.57,1.54-.8.63l7.69,4-.13.1a34.32,34.32,0,0,1,6.08.39c1.45,1.86-1.23-.12-1.11.78l4.75,1.48c.88,2.26-3.17,1.23-5.87-.68.5,3.47,1.46,3.74,3.18,4.09s4.13.84,7.29,4.75l-4.16-1.85a8,8,0,0,0,2.81,4.63,28.61,28.61,0,0,1,4.44,5c-.19-.75-1.54-3.2-2.25-5.25a4.23,4.23,0,0,1-.37-2.45c.2-.53.84-.76,2.09-.29a9.22,9.22,0,0,0,5.33,3.2c-1.1,1.6,1.39,2.79,4.24,4.68l-1.71,1.92a7.4,7.4,0,0,0,3.53.85,9.93,9.93,0,0,1,2.8,0c3.09,2.75,2.53,4.83,2.23,6.73,4.89,4.36-1.57-5.28,4.85-.85a36.29,36.29,0,0,0,2.72,2.79,24.51,24.51,0,0,0,2.93,2.22c2.07,1.38,4.48,2.58,7.47,4.2,2.19,3.31-1.54.69-1,2.18l3.85.86c.58.61-.05.88-.37,1,2.63,1.41,1.93-1.7,5.71.94,1.41-.57,2.45,1.75,3.77,4.5s3,5.9,6.08,6.84c.43,1.49-1.6.58-2,1.57l3.87,2.36c.93.61,1.59,1.07,2.25,1.47a62.31,62.31,0,0,0,5.76,2.9l2.27,5.18c-.57-2.12.41-2.59,2.09-2.24s4,1.6,6.1,2.79a36.58,36.58,0,0,0-.52-4.09l5.59,4.88c.22.95-.93.91-2.51.63.47.26.93.5,1.31.67.86,2.63-1.15,2.46-3.41,1.9-.15-1-.26-2-.37-3-2.32-.44-4.68-.65-5.61.59a6.75,6.75,0,0,1,2,1.4c-.61-.1-1.09-.09-1.16.23s.84.59,2.07,1.1l-1.24,3,1.13-.39c1.44,2.79,2.92,5.54,4.17,8.43,3.07,1.84,6.32,3.34,9.72,5.4A41.18,41.18,0,0,1,276.28,346c-3.22-1.12-3.2,1.34-5.39,2.53.34-1.91-1-3.49-2.75-5.19a29.79,29.79,0,0,1-5.2-5.88c1.42,2.47.08,2.63-.68,2.27,2.48,2.21,4.84,4.53,7.29,6.83-1.83.9-.17,2.55.49,5.11,1.17-1.85,2.78-.71,4.3,1.36s3.18,4.92,4.71,6.34c-1.05.88-2.72.73-4.85-3.6,0,3.06,1.9,3.94,3.83,4.83s4,1.71,4,4.68c-.58-1-.68-1.71-1.51-1.79,2.34,1.88,4.59,8.36,2.82,7.47l-.56-1c.79,1.79,1.87,4,3.09,6.33s2.39,4.84,3.69,7.06a40.09,40.09,0,0,0,3.8,5.68c1.23,1.43,2.23,2.34,3.14,2.28a18.55,18.55,0,0,1-5,.45q7.85,4.24,15.88,9c-1.59-.09-3.6,1.61-5.71,2.61s-4.22,1.3-6.21-1.4a19,19,0,0,0,.74,3.2,16.06,16.06,0,0,0,2.12,4.34c0-1.33,2.95-4.42,3.77-2.85-1.52,5.62-.56,3.75-1.3,10.17,0-1,1.25-1.35,2.61-1.08a3.89,3.89,0,0,1,3.2,2.65c-.79-.25-4.26,1.58-5,.66l6.38,5.95c-1.3-1.59-3.75.74-4.52,2.68.62-1,1.76,6.2,2.52,8.06l.29-3.35c.63,4.2,2.64,5.85,4.71,7.54a16.94,16.94,0,0,1,3,2.84,9.52,9.52,0,0,1,2,4.75c-1.09-.85-6.05-1.34-5.85,3a62.83,62.83,0,0,1,7.6,4.76,32.57,32.57,0,0,1,4.6,4.16,17,17,0,0,1,3.16,5.17l-1.12,1.65,2.24,5.7c-1.95-1.65-5.07-4.79-8.13-8.07l-2.26-2.47L314,458.92c-1.44-1.56-2.7-3-3.64-4.21-.47,3.28-1.38,1.13-.42,5.74-.92,1.82-2.3-2.22-2.62-3.55l.57,5.41.3,5.44c2.6-.85,3.74,7.94,5.91,7.29l-4.28-11.47c1.29-.44,3.4,1,5.26,3.55a20.7,20.7,0,0,1,2.46,4.59,21.29,21.29,0,0,1,.83,2.74,12.28,12.28,0,0,1,.37,2.91c-.91,2.11-4.88-1-5.76-.75,1,.9,2.33,7.22,1.73,8L313,481.42c-.33,2.2.69,3.88,1.53,5.72a9.79,9.79,0,0,1,.93,2.92,3.51,3.51,0,0,1,0,1.4,2.41,2.41,0,0,1-.63,1c-.07.47-.92,1-1.56,1.23s-1.07.35-.26.81c1.54.22,4.7.72,7.77,1.4s6,1.87,7.24,3.71c-.09.39-.74,3.4-1.58,5.95a22.18,22.18,0,0,1-1.32,3.33L325,509l0,.08a1.13,1.13,0,0,1-.15,0l-.63-.17-1.14-.34c-.71-.22-1.29-.43-1.74-.62-2.62-1.2-2.49-2.63-2.88-4a5.3,5.3,0,0,0-.87-2,7.55,7.55,0,0,0-.95-1,3.88,3.88,0,0,0-.44-.33l-.6-.39a1.53,1.53,0,0,1,.25,1.94,3.59,3.59,0,0,1-1.63-1.33,1.84,1.84,0,0,0-1.9-.62c.67,1.37-.8,1.31-1.6,1.23-.41,0-.67-.09-.52,0a15.68,15.68,0,0,0,2.15,1.05,5.09,5.09,0,0,1-3.05,0c-.44-.11-.89-.24-1.42-.34-.27,0-.56-.08-.88-.11-.48,0-1,0-1.62,0,1.54,1.76-4.35,6-8.48,6.77.25-.69-.68-1.6-1.13-2-8.46-.24-13-1.48-20.88-1.51-.73-.66-4.53-1.45-2.91-2.63-1.13.48-2.18,1.41-4.61,1.47-4.7-2.35,5.42-.36,1.84-3.2-.31,1.59-6.29,2.19-9.76,3.18,1.07,2.45,8,.47,11.48-.52,0,3.38-6,6.91-14.27,8.47-6.55.84-2.84-2.18-4-1.7-12.3-.59-10.48,5.9-20.7,3.46-4.05-2.15-.18-4.28-1.08-5.83,5.34-.81,8.19,1.36,11.81,1.28l-4.45-1c1.69-.71,5.25-1.26,7.19-.63-3.39-1.94-20.78-.37-30.27-2.16-1.68.72-4.6,1.47-3.22,2.33l3-.3c2.76,1.74-5.65,2.4-1.85,3.21-4,1.22-8.54,3.14-14.21,2.16l-1.07-2.46c.13.72,3.71,1.46,5.3.72-2.36,1.08-8.69-3.32-11.28-.11l4,1.7c-4,1.23-9,3.83-14.07,3.06,2.29,2.42,1.16-.28,4.73,2.56-3.09-3.53,12.86.15,7.89-3.56,3.66,3.29,6.34,1.4,11.13,4.2-.15-.81-1.7-1.55,2.52-1.15a4.23,4.23,0,0,1,.93-.71l.28.06L209,517c.18-.12.2-.14-.09,0a4.83,4.83,0,0,1-2.15-1.23c2.1-1.86,8.81-1.8,11.08-2.76,2.5.38-1.05.93.32,1.79l3.39-1.44c.33,1.8,6.65,3,.75,4l5.31.08c3.12,1,7.42,1.41,10.07.65,2.51.39,6.33-2,4.14-.58l8.33-1.11.08.45c8.21.22,16.91-3,26.3.26a33.05,33.05,0,0,1,10.24-.49l.91,1.55c3.55-.54,10.66,1.56,12.18-.06a7.49,7.49,0,0,0,4.41,1.92c.47.07,1,.12,1.48.16l.78,0,.4,0h.69c2,0,4.13,0,6.26,0,4.27-.1,8.57-.3,12.47-.45,2-.07,3.83-.12,5.58-.14.88,0,1.73,0,2.55,0l1.21,0c.29.09.2-.18.22-.34l0-.51-2.09-2.36A215.4,215.4,0,0,0,332,493.1c-.59.14-1.19.26-1.78.38a23.38,23.38,0,0,1-.45-2.74,20.68,20.68,0,0,1-.23-2.22,46.53,46.53,0,0,1,.13-4.78c.1-1.7.25-3.49.31-5.33a26,26,0,0,0-.23-5.56c.75.43.83,2.34.49,3.72a15.77,15.77,0,0,0,.5-1.75,14.69,14.69,0,0,0,.19-1.74,19.24,19.24,0,0,0-.19-3.47,41.73,41.73,0,0,0-1.77-6.8c-.36-1.11-.72-2.22-1.07-3.32s-.74-2.16-1-3.23a15,15,0,0,1-.47-6.39,7.41,7.41,0,0,1-.85-4.83,1.54,1.54,0,0,0,.18.47,6.49,6.49,0,0,0-.12-.82,24.56,24.56,0,0,0,.35-2.95,14,14,0,0,0-.44,2.51,34,34,0,0,0-2.07-5.93l1.65-1.39c-.07-.18-.1-.33-.17-.51.17-2.39-1.31-1.58-2.44-.07a13.78,13.78,0,0,0-1.83-2.7c1.3-1.26.7-2.68.11-4.18s-1.31-3,0-4.69c-2-1.07-4.33-10.88-8-11,.4-.21.38-.91.81.25-.46-2.53-.92-5.08-2.56-6.94l2-1.82L308,401.11c.23-3.67.46-5.3,3.49-2.81-5.72-6.57-3.48-5.8-8.68-11.13l1.58-.3a17.51,17.51,0,0,0-2.6-3.58c-.95-1.2-1.7-2.35-1.41-3.3.11-1.56-.52-3.92-1.58-6.79a40.75,40.75,0,0,0-2-4.6l-2.53-5.12L291.5,358c-1-1.83-2-3.67-2.95-5.51s-1.85-3.69-2.67-5.5c-.41-.91-.79-1.81-1.15-2.7s-.76-1.73-1.09-2.58c-2.45,4.81-1.83-6.7-5.18-5.23.47-1.3-.09-3.33,2-1.9a24.62,24.62,0,0,1-2.84-4c-.79-1.22-1.42-2.37-2-3.43a11,11,0,0,0-5.3-5c.41-1.33,2.22.33,2.32-.66-.54-.35-2.13-1.34-2.05-2.35s1.37.33,2.44,1a14,14,0,0,0-3.17-3.22,6.19,6.19,0,0,0-2.82-1,8.23,8.23,0,0,0-4.68,1.35c-1.12-3.86-2.47-5.23-5.75-6,0-1.67-.51-4.09,2.63-.71-.37-.53-1.08-1.64-2-3s-2.14-2.8-3.32-4.2c-2.38-2.81-4.82-5.17-5.85-4.41a3.64,3.64,0,0,0-1.22-1.86A7.82,7.82,0,0,0,245,295.8c-3.89-4.3-4.08-4.83-8.18-8.78l.79,1.43c-3.7.51-3.81-2.84-7.38-5.74l.31-.14c-3-4.43-4-5-5-5.63s-1.93-1.15-5-5.52l-.84,1.81c-1.72,1.24-3-.7-4.63-3.32s-3.6-5.8-6.46-7.05l1,2.2c-1.73-.46-2.64-3-3.45-5.69s-1.46-5.72-2.7-6.87c-.39-.7,1.3.18,2.25.62-5.67-7.12-2.42,1.34-8-2-.2-1.8,3.27-1.9-.18-4.67a5.49,5.49,0,0,0-2.56-1.6c-.66-.27-1.42-.56-2.22-.85l-2.6-.87c-3.59-1.23-7.43-2.84-9.26-5.56.56,1.6,1.09,3.19-1.85,2.23a19.75,19.75,0,0,1-3.17-2.4c-1.1-1-2.24-2.1-3.41-3.14-2.35-2.07-4.85-3.82-7.45-3.42-.38-.53-.45-.86-.34-1.1-3.56-.88-10.87-4-13.52-3.37,0-3.74-5.39-5.24-10.33-6.55-1.23-.33-2.45-.64-3.55-1a25.57,25.57,0,0,1-3-.93c-1.64-.7-2.5-1.61-1.91-3-3.42-1.22-6.8-2.53-10.24-3.66l.48-.49c-6.45-2.64-9.26-2.05-12-1.43-1.39-.91-.11-1.08.12-1.34a49.42,49.42,0,0,0-5.69-2.41,25.31,25.31,0,0,0-4.14-1.13,22.62,22.62,0,0,0-4.06-.27,50.4,50.4,0,0,0-5.48.38L91,202.45c-1.26.3-4.62-1.28-9-2.95-1.09-.42-2.24-.84-3.44-1.23s-2.46-.65-3.74-.91a31.18,31.18,0,0,0-7.73-.7,1.58,1.58,0,0,1,1.23-.68,22.76,22.76,0,0,1-4.39-.34c-1.49-.24-3-.47-4.54-.84-3-.68-6.09-1.62-8.95-2.37a24.48,24.48,0,0,0-7.79-1c-2.26.15-4.08.88-5.22,2.6l-8,1.28c.76,0,1.41.1,2,.17s.93.18,1.22.26a2.77,2.77,0,0,1,1.14.54c.35.37,0,.75-.57,1.14a12.62,12.62,0,0,0-1.62,1.18c-.36.39-.3.78.65,1.16a15.77,15.77,0,0,1-5.94-1.18c-1.63-.67-2.38-1.43.27-1.55l.9.38c.33-.93-.37-1.5-1.75-1.87a31.94,31.94,0,0,0-5.45-.66c-4.14-.27-8.47-.38-9.5-1.66l-1.2,0h-.3s-.12,0-.14,0v.75l0,2.4L9,201.08q-.12,4.83-.24,9.61c-.05,1.62-.1,3.23-.14,4.84-.06,1.13-.11,2.26-.17,3.38-.12,2.25-.25,4.49-.37,6.72C7.54,234.56,7,243.34,6.9,251.94l2.93-2-.17,6c-.68,1.58-2.29,2.12-2.17-2.16-1.66,2.25,1.39,7.18,2,7.3-1.19,8.39-3.41-3.28-3.48-.7l.21,3.49.35-.79c1.19,2.83,2.46,3.08,2.32,8.23C8.33,274.59,7.11,273,7,274.28c-.21,0-.31.43-.09,2l-.25,7.56,2.31-3c1.14,3.35-.12,7.11,2.5,3.62-4,5.12-1.45,28.22-2.7,31.36,1.69,4.7,1.66,9.33,1.45,15.07.48-1.43,3.08-2.28,2.76,2.67-5.36-1.81-2.32,9.07-6.18,13.07,2.56-3.57.64,14.08,4.27,8.47-.44,4.13-2,.25-3.27,3.38,2.08,9.84-1.35,21.68-.65,33.83.71.19,1.78-1.84,2.83.76l-3.52,6.42c.35,2.4,4.06,2.21,1.62,6.6.59-.62,1.49-1.54,1.71.07C6.36,429.92,12.6,454.77,6.16,479c1.37-3.27,1.5-1.09,1.55,1.41.33-1.63,1.74,0,2.69-.28L7.76,490.2c2.64,1.85.18,10.86,2.7,11.91l-.45-3.2c3,4.26,6.64-6,10.47-5.35-3.4-4.77,5-12.58.16-20.42.79-1.73,1.24,1.48,2.13.55-1.65-2-2-4.38-1.25-8.83l.41.51c-.41-12.49,1.21-17.84,2.29-31.86l-1.89,1a14,14,0,0,1,1.32-5.05c-2.88-3.46-.16,8.46-3.33,5.31,3.85-4,.05-21.25,4.44-24,0-4.63-2.2,1.36-2.17-3.27l1.18-1.23-1.52-1.17c.25-3,1.73-4.58,2.73-4.69a14,14,0,0,0,.37,2.89c1.4-3.94-.48-11.12,0-12.47l-.73,4.45c-1.11-12.65.44-28.1-2-40.32l-.89.93c-1.66-9.34,1-7.48.21-17.73l.22.37A18.11,18.11,0,0,1,20.93,331c1,2.59,2-4.87,3.19-1.48-1.78-10.12-1.39-5-4.72-11.69l1.49-1.54c-1.35-2.28-2.05-2.47-2.44-7.59,1.27,4.2,2.26-3.27,3.94,1.44,3.25-10.74-3.27-15.95,1.47-20.88-4.1-4.93-2.28,9.29-3.16,6.53-1.34,2.32-3.06-4.07-2.65-7.44.09-3.43,5.25-5.83,5.17-14.47,0,.86.29.92.27,1.78,1.05-3.23-1.41-6.33.29-10.29-2.49-2.22.14-5.15-3-5.79l.74,7.92c-.83-4.49-4.54-8.7-2.74-16.09.64.57,1.48,2.77,1.95,4.29.93-2.17-.62-4.17.33-6.41,3.17.64.7,9.62,3.11,14.43,1.34-2.32-2.29-9.1,1.14-6.68-4.37-3.47.55-8.5-2.78-14.35l1.89.39a14.06,14.06,0,0,1-1.14-4.55l2.46,3.09c-2.1-4.74,1.83-9.13.69-13.67.06,9.51-2.29,2.14-3.67,6.15-1.27-5.86,0-7.54,1.41-9.4a11.19,11.19,0,0,0,2-3.47,13.39,13.39,0,0,0,.59-2.85c.05-.57.08-1.2.09-1.88,0-.33,0-.74,0-1a2,2,0,0,0-.06-.32.31.31,0,0,1,0,.21l0,.15-.07.49a9,9,0,0,1-.5,1.9c-.43,1.1-1,1.63-1.44.24.2-1.15.48-3.09.83-3.13a2,2,0,0,1,1.29-.74c-.2-1.17-.69-1.46-1.27-1.42s-1.27.47-1.85-.61c1.16-.13.92-.54.3-1.5a13.87,13.87,0,0,1-2-3.87L24,208.75l0-.15s0-.11.12-.07l.4.07a3.5,3.5,0,0,0,.59.05c.31,0,.48-.11.56-.26s0-.79-.19-1.28-.34-1,0-1.23,1.08-.29,2.57.13a6.17,6.17,0,0,0-.84,2.65c.55-.21,1.17-.43,1.85-.64a18.19,18.19,0,0,0,.21,2.2,2.58,2.58,0,0,1,1.54-1,1.09,1.09,0,0,1,.26,0h.44a41.55,41.55,0,0,1,5.52,1c-1-1.44.88-3.44,5.19-3.17,2.81,1.38-1.8,1.67,4.27,1.92-1.49,1-3.11,2.48-5.57.49-.32.61-1.44,1.11-1.77,1.7a12.49,12.49,0,0,0,5.28,1c1.84,0,3.56.08,4.64.18a7.43,7.43,0,0,1-2.28-.75l9-1.53c1.28.89.11,1.33-1,1.75,1.78,0,3.12-.7,5.74-.53-.9,1.46-1,3.08-4.72,3.35l4.23-.34c1.4-.06,2.8-.08,4.21-.13.44.77,3.86,2.6,2.7,3,2.16.87,5,.59,8.14.45s6.33,0,9.15,1.31a4.53,4.53,0,0,1,2.39-.29c2.77.76,5.2,2.14,7.85,3.15a22.53,22.53,0,0,0,9.08,1.7l2.77,3.92c5.22,1.11-3.84-5,4.91-3.19,6.27,1.2,1.43,3,3.24,4.47.86-.07,1.89-.22,3-.25a22.36,22.36,0,0,1,3.59.17,13.15,13.15,0,0,1,7.45,3.38C126.54,231.71,125.3,230.77,123.56,230.31Zm58.71,29.62c-1.28-.4-4.13-.7-4.28-2.16C180.43,256.72,180.82,258.19,182.27,259.93Zm76,66.27c-1.09-.39-1.77-1.74-2.23-3.52A9.19,9.19,0,0,1,258.25,326.2ZM231.69,516.33l.15-.1C234.77,517,233.73,516.69,231.69,516.33Zm-6.09-.84c-.62.27-.57.54-.32.81.43-.49,1.8-.52,3.36-.39C228.21,515.41,227.42,515.06,225.6,515.49ZM7.71,275l.5-1.19C8.77,276.45,8.27,275.7,7.71,275Z" transform="translate(0 0)"/><path class="cls-2" d="M249.06,318.77a1.77,1.77,0,0,1,.47-1.09C249,317.48,248.67,317.71,249.06,318.77Z" transform="translate(0 0)"/><path class="cls-2" d="M84.41,218.94l-.19-.07a.91.91,0,0,0-.27.29Z" transform="translate(0 0)"/><path class="cls-2" d="M313.39,499.13a11.77,11.77,0,0,1,2.19,1A3.46,3.46,0,0,0,313.39,499.13Z" transform="translate(0 0)"/><path class="cls-2" d="M193.28,518.77l3.9-.5a7.42,7.42,0,0,1-3.51-.64C193.75,518.09,194.5,518.74,193.28,518.77Z" transform="translate(0 0)"/><path class="cls-2" d="M159.37,506.83c-.57.23-1.21,0-1.77.26l.15.9C160.18,507.93,161.88,507.21,159.37,506.83Z" transform="translate(0 0)"/><path class="cls-2" d="M189.66,512.36c-.31-1.63-2.76-1.07-5.5-.77a2.67,2.67,0,0,1,.49,0C183.84,513.86,186.76,513.11,189.66,512.36Z" transform="translate(0 0)"/><path class="cls-2" d="M183.53,511.64a13.4,13.4,0,0,1-2.53,0C180.68,512.59,182,511.87,183.53,511.64Z" transform="translate(0 0)"/><path class="cls-2" d="M217.86,516.57c-1.3-.42-.81,2.07-1.55,1.41C214.86,520.05,225,515.48,217.86,516.57Z" transform="translate(0 0)"/><polygon class="cls-2" points="187.44 507.01 188.43 509.01 189.96 507.4 187.44 507.01"/><path class="cls-2" d="M209.05,508.48l-4.37-.55c.07.33-.49.53-1.17.68C206.2,508.68,209.15,509.07,209.05,508.48Z" transform="translate(0 0)"/><path class="cls-2" d="M203.51,508.61a9.68,9.68,0,0,0-3.52.33A22.46,22.46,0,0,0,203.51,508.61Z" transform="translate(0 0)"/><polygon class="cls-2" points="193.42 506.41 194.72 506.83 197.8 506.97 193.42 506.41"/><path class="cls-2" d="M256.06,508.87l4.77-.58c.48-.68-.82-1.1-2.59-.83C257.09,507.94,255.32,508.2,256.06,508.87Z" transform="translate(0 0)"/><path class="cls-2" d="M241.62,503.38c1.29.41,1.38.86,2.11,1.52l.14-2.48Z" transform="translate(0 0)"/><path class="cls-2" d="M255.54,502.8c.48-.69,6.93-2,.88-1.82C255.93,501.66,251.15,502.23,255.54,502.8Z" transform="translate(0 0)"/><path class="cls-2" d="M321.63,501.64l.06,1.16,4.16,3C324.44,504.3,323,502.93,321.63,501.64Z" transform="translate(0 0)"/><path class="cls-2" d="M304.65,442c.28,5.52,2.78.72,2.66,5.81.58.53.68-.52.66-1.55s0-2.06.53-1.5C306.75,441.72,306.92,439.91,304.65,442Z" transform="translate(0 0)"/><path class="cls-2" d="M308.5,444.74a15.67,15.67,0,0,0,1,1.53A6.43,6.43,0,0,0,308.5,444.74Z" transform="translate(0 0)"/><polygon class="cls-2" points="5.66 496.98 4.81 500.62 6.18 498.27 5.66 496.98"/><path class="cls-2" d="M8.68,504l-2.6.86L8.43,507C8.32,506.18,8.09,504.58,8.68,504Z" transform="translate(0 0)"/><path class="cls-2" d="M187.18,269.86l.59-.35c0-.86-.68-1.38-2-2.41Z" transform="translate(0 0)"/><polygon class="cls-2" points="147.97 243.54 148.67 243.96 148.37 241.17 147.97 243.54"/><path class="cls-2" d="M110.44,230.79c1.48.61,3.45.73,4.94,1.34C111.93,231.41,111,227.89,110.44,230.79Z" transform="translate(0 0)"/></g></g></g></svg>