<svg xmlns="http://www.w3.org/2000/svg" viewBox="0 0 117.13 117.13"><defs><style>.cls-1{fill:#040006;opacity:0.05;}.cls-2{fill:#c7574e;}</style></defs><title>Ativo 6</title><g id="Camada_2" data-name="Camada 2"><g id="Camada_1-2" data-name="Camada 1"><circle class="cls-1" cx="58.56" cy="58.56" r="58.56"/><path class="cls-2" d="M.08,58.59a58.53,58.53,0,1,1,58.44,58.5A58.51,58.51,0,0,1,.08,58.59ZM58.6,114.18A55.59,55.59,0,1,0,3,58.6,55.64,55.64,0,0,0,58.6,114.18Z"/><path class="cls-2" d="M58.59,5.6a53,53,0,1,1-52.95,53A53,53,0,0,1,58.59,5.6Zm0,19.89a33.07,33.07,0,1,0,33,33.08A33.09,33.09,0,0,0,58.63,25.49ZM23.19,69.54c-3.92,2-7.77,3.89-11.63,5.84L13,78.44,19.86,75l-2.81,6.08,6.67,1c-1.19.69-2.28,1.31-3.36,2s-2.19,1.26-3.28,1.92l1.78,2.87L30,82.28c0-.07,0-.11,0-.14-.54-.89-1.09-1.78-1.64-2.67a.55.55,0,0,0-.49-.25L22,78.7l-.45,0c.13-.24.22-.43.32-.62q1.3-2.46,2.6-4.93c.09-.16.23-.31.13-.54C24.14,71.58,23.68,70.58,23.19,69.54ZM98,45.13l5.16-7.92L101.62,34,89.76,39.33l1.49,3,6.89-3.13,0,.06-5.11,7.44,1.2,3.39,12.16-4.59-1.11-3.21ZM41.5,105.22,44,97.77c.07.15.11.21.13.27.86,2.79,1.73,5.58,2.58,8.38a.63.63,0,0,0,.53.49c.87.18,1.72.41,2.58.61l.52.11,3.35-12.55c-1.13-.27-2.18-.57-3.29-.76-.65,2.46-1.29,4.87-2,7.4-.08-.21-.12-.3-.15-.39-.77-2.67-1.55-5.34-2.31-8a.68.68,0,0,0-.5-.53l-2.2-.8-.79-.27c-1.39,4.12-2.76,8.21-4.14,12.33Zm60.15-22-6.86-3.67,9.34-1.27L105.55,75,93.74,69.52l-1.31,3.12,6.81,3.14s0,0,0,0a.45.45,0,0,1,0,.08l-.57,0c-2.57.29-5.13.59-7.71.86a1.1,1.1,0,0,0-1,.69c-.28.59-.64,1.14-1,1.71l-.46.82L100,86.16ZM33.24,16l5.84,11.65c2-.92,3.86-1.79,5.72-2.72a6.72,6.72,0,0,0,1.52-1.14,2.7,2.7,0,0,0,.83-2.16,4.34,4.34,0,0,0-.85-2.31,2.41,2.41,0,0,0-2.39-1.08l-.56,0,.46-.48a2.17,2.17,0,0,0,.57-2.11A7.79,7.79,0,0,0,44,14.51a2.73,2.73,0,0,0-3-1.72,7.22,7.22,0,0,0-2.23.64l-3,1.39Zm54,13.58,1.16,1.26c-.63,1.44-1.25,2.86-1.89,4.3l2.44,3L91,33c.08,0,.09,0,.11,0l.21,0a2.83,2.83,0,0,0,2.31-.25,7.31,7.31,0,0,0,2.33-2,3.19,3.19,0,0,0,.34-3.59A7.26,7.26,0,0,0,95,25.38c-1.23-1.33-2.47-2.65-3.7-4-.11-.12-.23-.22-.37-.35l-9.3,9.22,2.5,2.37Zm-2.77,71.49L78.68,89.38l-3,1.62,2.09,4.28-4,1.84-1.85-4.39L68.62,94c1.68,4,3.34,8,5,12l3.22-1.24-2-4.76L79.12,98l2.3,4.64ZM37.65,88.58l-.37.49C35.86,91,34.45,92.92,33,94.84a5.35,5.35,0,0,1-.62.72,1.59,1.59,0,0,1-1.83.31,4.56,4.56,0,0,1-1.14-.74,1.9,1.9,0,0,1-.21-2.94,2.09,2.09,0,0,1,.14-.17L34,86.45l.34-.44-2.56-2.27-.26.27c-1.68,2-3.37,4-5,6a6.48,6.48,0,0,0-.67,1,4.08,4.08,0,0,0,.05,4.56,8.52,8.52,0,0,0,4.47,3.52A4.11,4.11,0,0,0,34.89,98a7.57,7.57,0,0,0,.69-.81l4.65-6.28c.08-.11.14-.23.22-.36ZM56.35,9.3l-4,.35c-1.2,4.54-2.4,9-3.61,13.61l3.61-.64L53,20.14l4.48-.39,1.07,2.31h3.67Zm11,90A4.75,4.75,0,0,0,64,95.08a7.51,7.51,0,0,0-4.15,0,5.36,5.36,0,0,0-4.11,4.08,9.65,9.65,0,0,0,.08,5.25,5.22,5.22,0,0,0,4,3.84,8.05,8.05,0,0,0,4.66-.26,4.68,4.68,0,0,0,3.33-4.41c0-.19,0-.38,0-.59l-1.74.1-1.7.13c0,.21-.06.38-.1.55a2,2,0,0,1-.8,1.27,2.63,2.63,0,0,1-4-1.23,6.71,6.71,0,0,1-.13-4.18,2.34,2.34,0,0,1,2.64-1.88,1.87,1.87,0,0,1,1.7,1.09c.1.2.18.41.29.67ZM27.07,26a4.74,4.74,0,0,0-5.45-.26,7.76,7.76,0,0,0-3.2,3.92,5.12,5.12,0,0,0,.75,5.27,9.62,9.62,0,0,0,4.65,3.31,5.28,5.28,0,0,0,5.2-1,8.14,8.14,0,0,0,2.21-2.7,4.93,4.93,0,0,0-.95-6c-.1-.1-.21-.17-.34-.28L27.83,31c.17.23.31.41.44.6A1.91,1.91,0,0,1,28.58,33a2.45,2.45,0,0,1-2.79,2,3,3,0,0,1-.71-.18A7,7,0,0,1,22,32.57a3.06,3.06,0,0,1-.56-1.18,2.74,2.74,0,0,1,2-3,2.05,2.05,0,0,1,.78,0,6,6,0,0,1,.79.26ZM88.36,91.25l3.9-3.74-2-1.9-3.78,3.62L85,87.57l3.78-3.63-1.92-2-6.18,5.91,8.7,9.65,7-6.68-2-1.94L90,93.07ZM83.61,21.7,79,19.14l1-2,5,2.76,1.42-2.4L78.26,13,72.36,24.6l7.73,4.25,1.41-2.4-4.93-2.71,1.13-2.17L82.22,24ZM18.93,39.09,17,44.43a9.35,9.35,0,0,1-2.43-.84l2-5.69-2.6-1L10.69,46c.84.41,12.07,4,12.47,4l.95-3.2-4.55-1.5,1.88-5.24ZM68,23.35a3.09,3.09,0,0,0,.12-.37c.28-1.14.56-2.27.8-3.41a1.87,1.87,0,0,1,.49-.92l5.9-6.42a4.4,4.4,0,0,0,.27-.35c-1.21-.29-2.36-.57-3.51-.87-.28-.07-.42.09-.58.27L68.3,14.94c-.08.09-.18.18-.3.29L66.38,9.77c-1.31-.23-2.55-.53-3.87-.7.09.27.14.45.2.63l2.67,8.13a1.52,1.52,0,0,1,.06.87c-.25,1.11-.47,2.22-.7,3.33,0,.18-.06.37-.1.59ZM33.74,90.11a21.92,21.92,0,0,0,3.16-2.22l-1.75-1.38Z"/><path class="cls-2" d="M45.17,46.91a2.62,2.62,0,0,1-.28-.3l-6.81-10-.2-.31a30.23,30.23,0,0,1,25.28-7.82v.6c0,3.94,0,7.87,0,11.81a1.72,1.72,0,0,0,.32,1q4.08,5.91,8.12,11.84c.1.15.21.28.37.51,0-.21,0-.32,0-.43q0-7.4,0-14.79a1.24,1.24,0,0,0-.25-.73q-3-4.43-6.07-8.86c-.11-.16-.21-.32-.35-.55a3.24,3.24,0,0,1,.46.07,31.05,31.05,0,0,1,5.85,2.07.69.69,0,0,1,.46.72c0,2.13,0,4.26,0,6.38a1.55,1.55,0,0,0,.28.94l8.21,12a1,1,0,0,0,.37.34V38.1l.12,0a29.68,29.68,0,0,1,6.08,10,30,30,0,0,1,1.54,14.82c-1.32-1.81-2.57-3.66-3.84-5.5S82.34,53.7,81,51.89c0,.13,0,.26,0,.39,0,4.9,0,9.79,0,14.69a1.27,1.27,0,0,0,.25.78c1.2,1.74,2.38,3.48,3.57,5.22l.3.44c-.36,1-3.39,5.29-4.21,5.73v-.59c0-3.56,0-7.13,0-10.69A1.56,1.56,0,0,0,80.6,67L72.45,55.09a1.24,1.24,0,0,0-.43-.42v.51c0,4.82,0,9.64,0,14.47a1.55,1.55,0,0,0,.29.93q3.3,4.8,6.58,9.61c.15.22.3.44.47.71a30.8,30.8,0,0,1-25.31,7.82V76.12a1.25,1.25,0,0,0-.21-.74l-8.3-12.1-.3-.42c0,.23-.05.38-.05.52V78.06a1.21,1.21,0,0,0,.23.74q3.06,4.44,6.1,8.9c.11.16.22.32.38.57a30.27,30.27,0,0,1-6.79-2.41v-.59q0-3.19,0-6.38a1.22,1.22,0,0,0-.22-.74q-4.15-6-8.3-12.11a1.27,1.27,0,0,0-.3-.32c0,.87,0,1.75,0,2.62s0,1.81,0,2.71v8l-.12,0a30.47,30.47,0,0,1-7.68-24.75l.12,0,7.56,11,.1,0c0-.18,0-.37,0-.55V50.49c0-.25,0-.49,0-.74h0a4.23,4.23,0,0,1,.32.42l8.17,11.91c.1.16.21.31.4.58,0-.27,0-.4,0-.53V47.37c0-.16,0-.32,0-.48l.31.44q4.11,6,8.23,12c.1.15.21.3.31.46l.12,0V49.89c0-1.89,0-3.79,0-5.68l.32.42,8.19,12c.1.14.17.33.38.42a.89.89,0,0,0,0-.19q0-7.53,0-15a1.05,1.05,0,0,0-.18-.53L54.48,29c-.06-.09-.15-.16-.3-.33v.69q0,7.1,0,14.19c0,.23,0,.46,0,.69a5,5,0,0,1-.37-.43L45.66,31.92c-.1-.15-.21-.29-.32-.44l-.1.06v.57q0,7.11,0,14.23A5.51,5.51,0,0,1,45.17,46.91Zm9.08,13.26-.1,0a2.29,2.29,0,0,0,0,.25q0,7.47,0,14.94a1,1,0,0,0,.16.54q4.19,6.15,8.4,12.28a3.56,3.56,0,0,0,.29.3V88q0-7.36,0-14.73a1.26,1.26,0,0,0-.25-.73q-4-5.76-7.9-11.53Zm8.84-2.87c0,.23,0,.34,0,.44q0,7.41,0,14.83a1.16,1.16,0,0,0,.23.68l8.23,12,.38.5c0-.29,0-.45,0-.62q0-7.26,0-14.52a1.45,1.45,0,0,0-.29-.88q-4.12-6-8.23-12Z"/><path class="cls-2" d="M36.28,49.75a1.52,1.52,0,0,1-.22-.22l-3.85-5.61a1.62,1.62,0,0,1-.1-.18A24.66,24.66,0,0,1,36.26,38c0,.14,0,.26,0,.37q0,5.48,0,11c0,.14,0,.28,0,.42Z"/><path class="cls-2" d="M41,23.82l-1.19-2.35a14.67,14.67,0,0,1,2.49-1.06,1,1,0,0,1,1.16.53,2.55,2.55,0,0,1,.22.54,1,1,0,0,1-.53,1.32C42.42,23.16,41.7,23.47,41,23.82Z"/><path class="cls-2" d="M38.61,19.13l-1.1-2.2c.84-.37,1.62-.76,2.44-1.07a1,1,0,0,1,1.3.59,1.11,1.11,0,0,1-.53,1.68C40.05,18.47,39.35,18.78,38.61,19.13Z"/><path class="cls-2" d="M89.26,27.78l2.2-2.21c.54.59,1.14,1.19,1.66,1.86a1.1,1.1,0,0,1-.07,1.5l-.18.19a1.42,1.42,0,0,1-2.4,0C90.05,28.64,89.64,28.18,89.26,27.78Z"/><path class="cls-2" d="M54.67,13.13l1.78,4.11-2.88.23C53.85,16,54.29,14.57,54.67,13.13Z"/></g></g></svg>