<svg xmlns="http://www.w3.org/2000/svg" viewBox="0 0 11.91 11.91"><defs><style>.cls-1{fill:#fff;}</style></defs><title>Asset 5</title><g id="Layer_2" data-name="Layer 2"><g id="Camada_2" data-name="Camada 2"><path class="cls-1" d="M0,6.3V5.61l0-.25A5.86,5.86,0,0,1,1.48,2,5.85,5.85,0,0,1,4.93.09c.22,0,.45-.06.68-.09H6.3l.12,0c.26,0,.52.06.78.12a5.8,5.8,0,0,1,3.5,2.22,5.82,5.82,0,0,1,1.07,4.85,5.75,5.75,0,0,1-2.19,3.47,5.83,5.83,0,0,1-4.22,1.2A5.76,5.76,0,0,1,2,10.39,5.87,5.87,0,0,1,.09,7C.05,6.76,0,6.53,0,6.3ZM5.93,8c-.35,0-.69,0-1,0a.17.17,0,0,0-.16.08l-1,1.32a.22.22,0,0,0,0,.16l.42,1.29a.19.19,0,0,0,.1.1,5.28,5.28,0,0,0,3.31,0,.2.2,0,0,0,.11-.11c.15-.43.28-.85.42-1.28a.15.15,0,0,0,0-.17l-1-1.32A.17.17,0,0,0,7,8C6.61,8.05,6.27,8,5.93,8ZM9.42,9.16h.69a.17.17,0,0,0,.12-.06,5.19,5.19,0,0,0,1-3.15.2.2,0,0,0-.07-.15L10.11,5A.18.18,0,0,0,10,5l-1.55.5a.21.21,0,0,0-.1.11c-.23.68-.45,1.36-.67,2.05a.2.2,0,0,0,0,.15l.95,1.3a.19.19,0,0,0,.14.07Zm-7,0h.67a.21.21,0,0,0,.14-.07l1-1.33a.16.16,0,0,0,0-.15c-.21-.67-.43-1.33-.64-2a.19.19,0,0,0-.13-.13L1.94,5a.14.14,0,0,0-.16,0l-1,.75a.2.2,0,0,0-.09.19,5.34,5.34,0,0,0,1,3.13.18.18,0,0,0,.13.06ZM6.26,2.61v.78a.25.25,0,0,0,.08.14L8.13,4.82a.2.2,0,0,0,.15,0l1.48-.48a.18.18,0,0,0,.1-.11c.15-.42.28-.84.41-1.27a.16.16,0,0,0,0-.15A5.22,5.22,0,0,0,7.55.9a.16.16,0,0,0-.15,0l-1.06.76a.17.17,0,0,0-.08.16Zm-.64,0c0-.26,0-.52,0-.78a.17.17,0,0,0-.07-.14L4.5.92a.22.22,0,0,0-.16,0A5.31,5.31,0,0,0,1.65,2.84a.19.19,0,0,0,0,.18c.14.4.26.81.4,1.21a.2.2,0,0,0,.11.11l1.51.5a.21.21,0,0,0,.15,0L5.55,3.53a.21.21,0,0,0,.07-.14C5.63,3.13,5.62,2.87,5.62,2.61Z"/></g></g></svg>