<svg xmlns="http://www.w3.org/2000/svg" viewBox="0 0 835.15 358.67"><defs><style>.cls-1,.cls-2{fill:#fff;}.cls-1{opacity:0.25;}.cls-2,.cls-4,.cls-5{opacity:0.5;}.cls-3,.cls-4{fill:none;stroke:#fff;stroke-miterlimit:10;stroke-width:0.5px;}</style></defs><title>Asset 3</title><g id="Layer_2" data-name="Layer 2"><g id="Gráfico"><rect class="cls-1" x="0.25" y="286.78" width="168.83" height="35.82"/><rect class="cls-2" x="0.25" y="0.25" width="168.83" height="35.82"/><rect class="cls-1" x="0.25" y="322.6" width="168.83" height="35.82"/><rect class="cls-1" x="0.25" y="250.97" width="168.83" height="35.82"/><rect class="cls-1" x="0.25" y="215.15" width="168.83" height="35.82"/><rect class="cls-1" x="0.25" y="179.33" width="168.83" height="35.82"/><rect class="cls-1" x="0.25" y="143.52" width="168.83" height="35.82"/><rect class="cls-1" x="0.25" y="107.7" width="168.83" height="35.82"/><rect class="cls-1" x="0.25" y="71.88" width="168.83" height="35.82"/><rect class="cls-1" x="0.25" y="36.07" width="168.83" height="35.82"/><rect class="cls-3" x="0.25" y="0.25" width="168.83" height="358.17"/><line class="cls-4" x1="0.25" y1="322.6" x2="834.86" y2="322.6"/><line class="cls-3" x1="0.25" y1="358.42" x2="834.86" y2="358.42"/><line class="cls-4" x1="0.25" y1="286.78" x2="834.86" y2="286.78"/><line class="cls-4" x1="0.25" y1="250.97" x2="834.86" y2="250.97"/><line class="cls-4" x1="0.25" y1="215.15" x2="834.86" y2="215.15"/><line class="cls-4" x1="0.25" y1="179.33" x2="834.86" y2="179.33"/><line class="cls-4" x1="0.25" y1="143.52" x2="834.86" y2="143.52"/><line class="cls-4" x1="834.86" y1="107.7" x2="0.25" y2="107.7"/><line class="cls-4" x1="0.25" y1="71.88" x2="834.86" y2="71.88"/><line class="cls-4" x1="0.25" y1="36.07" x2="834.86" y2="36.07"/><line class="cls-3" x1="0.25" y1="0.25" x2="834.86" y2="0.25"/><g class="cls-5"><line class="cls-3" x1="834.9" y1="0.25" x2="834.9" y2="358.42"/><line class="cls-3" x1="169.08" y1="0.25" x2="169.08" y2="358.42"/></g></g></g></svg>